<?xml version="1.0" encoding="UTF-8"?>
<svg width="499px" height="332px" viewBox="0 0 499 332" version="1.1" xmlns="http://www.w3.org/2000/svg" xmlns:xlink="http://www.w3.org/1999/xlink">
    <title> When the UI of the application is changed</title>
    <defs>
        <linearGradient x1="27.0064518%" y1="49.7411056%" x2="121.539503%" y2="50.3946795%" id="linearGradient-1">
            <stop stop-color="#3023AE" offset="0%"></stop>
            <stop stop-color="#C86DD7" stop-opacity="0" offset="100%"></stop>
        </linearGradient>
        <linearGradient x1="10.7231804%" y1="100%" x2="89.2768196%" y2="0%" id="linearGradient-2">
            <stop stop-color="#6441A5" offset="0%"></stop>
            <stop stop-color="#452260" offset="100%"></stop>
        </linearGradient>
        <linearGradient x1="58.7515471%" y1="50%" x2="28.7736457%" y2="48.6916415%" id="linearGradient-3">
            <stop stop-color="#194483" offset="0%"></stop>
            <stop stop-color="#566170" stop-opacity="0.246410718" offset="50.497538%"></stop>
            <stop stop-color="#6A6A6A" stop-opacity="0" offset="100%"></stop>
        </linearGradient>
        <linearGradient x1="50%" y1="0%" x2="50%" y2="100%" id="linearGradient-4">
            <stop stop-color="#E98B00" offset="0%"></stop>
            <stop stop-color="#CF5300" offset="100%"></stop>
        </linearGradient>
        <linearGradient x1="50%" y1="19.3768619%" x2="50%" y2="100%" id="linearGradient-5">
            <stop stop-color="#E98B00" offset="0%"></stop>
            <stop stop-color="#CF5300" offset="100%"></stop>
        </linearGradient>
        <polygon id="path-6" points="0.408001711 0.481422399 16.7936543 0.481422399 16.7936543 9.79360805 0.408001711 9.79360805"></polygon>
        <linearGradient x1="106.638748%" y1="3.62984786%" x2="7.8824187%" y2="24.078634%" id="linearGradient-8">
            <stop stop-color="#79F4C4" offset="0%"></stop>
            <stop stop-color="#55DDAD" offset="19.7845259%"></stop>
            <stop stop-color="#1FBEC5" offset="100%"></stop>
        </linearGradient>
        <linearGradient x1="82.6547016%" y1="50.8392523%" x2="36.1012946%" y2="47.9220947%" id="linearGradient-9">
            <stop stop-color="#194483" offset="0%"></stop>
            <stop stop-color="#566170" stop-opacity="0.246410718" offset="50.497538%"></stop>
            <stop stop-color="#6A6A6A" stop-opacity="0" offset="100%"></stop>
        </linearGradient>
        <linearGradient x1="49.9886725%" y1="10.7774811%" x2="49.9147641%" y2="89.0029868%" id="linearGradient-10">
            <stop stop-color="#9297E5" stop-opacity="0.2" offset="0%"></stop>
            <stop stop-color="#9196E5" stop-opacity="0.21" offset="24%"></stop>
            <stop stop-color="#8F94E4" stop-opacity="0.25" offset="40%"></stop>
            <stop stop-color="#8B90E4" stop-opacity="0.32" offset="53%"></stop>
            <stop stop-color="#858BE3" stop-opacity="0.41" offset="64%"></stop>
            <stop stop-color="#7E84E1" stop-opacity="0.54" offset="75%"></stop>
            <stop stop-color="#757BDF" stop-opacity="0.69" offset="85%"></stop>
            <stop stop-color="#6B71DE" stop-opacity="0.87" offset="94%"></stop>
            <stop stop-color="#6369DC" offset="100%"></stop>
        </linearGradient>
        <linearGradient x1="49.9958287%" y1="100.016368%" x2="50.0017865%" y2="-1.04086318%" id="linearGradient-11">
            <stop stop-color="#F3D55F" offset="0%"></stop>
            <stop stop-color="#F3D261" offset="28%"></stop>
            <stop stop-color="#F1CA69" offset="45%"></stop>
            <stop stop-color="#EEBB76" offset="60%"></stop>
            <stop stop-color="#EAA688" offset="73%"></stop>
            <stop stop-color="#E58B9F" offset="85%"></stop>
            <stop stop-color="#DF6BBC" offset="96%"></stop>
            <stop stop-color="#DD5EC7" offset="100%"></stop>
        </linearGradient>
        <linearGradient x1="-0.126855871%" y1="50.0249481%" x2="99.9986623%" y2="50.0249481%" id="linearGradient-12">
            <stop stop-color="#02D5CC" offset="0%"></stop>
            <stop stop-color="#03D2CA" offset="30%"></stop>
            <stop stop-color="#06CAC2" offset="49%"></stop>
            <stop stop-color="#0CBBB4" offset="65%"></stop>
            <stop stop-color="#14A6A0" offset="80%"></stop>
            <stop stop-color="#1E8C88" offset="93%"></stop>
            <stop stop-color="#257976" offset="100%"></stop>
        </linearGradient>
        <linearGradient x1="49.9770914%" y1="100.006891%" x2="50.038025%" y2="0.0338161269%" id="linearGradient-13">
            <stop stop-color="#0FA4FC" offset="0%"></stop>
            <stop stop-color="#12A3FB" offset="28%"></stop>
            <stop stop-color="#1AA0F8" offset="46%"></stop>
            <stop stop-color="#299BF4" offset="61%"></stop>
            <stop stop-color="#3E94ED" offset="75%"></stop>
            <stop stop-color="#598AE4" offset="87%"></stop>
            <stop stop-color="#797FDA" offset="98%"></stop>
            <stop stop-color="#7E7DD8" offset="100%"></stop>
        </linearGradient>
    </defs>
    <g id="Page-1" stroke="none" stroke-width="1" fill="none" fill-rule="evenodd">
        <g id="Importance-of-Geolocation-Browser-Testing-Copy" transform="translate(-114.000000, -20.000000)">
            <g id="-When-the-UI-of-the-application-is-changed" transform="translate(114.000000, 20.000000)">
                <path d="M73.9460526,291.715352 C17.1114815,300.294137 -29.4798739,304.116872 26.7236111,314.310412 C64.172344,319.605917 78.1096545,319.840949 171.782129,310.406503 C208.180577,307.37013 269.736775,313.985086 273.483674,317.346785 C281.512743,324.070183 343.068941,331.444233 408.907309,324.937719 C511.144124,315.069505 354.309638,307.37013 435.135602,298.261009 C519.708465,294.682426 512.718381,291.675126 450.123198,284.922655 C421.004152,281.78143 352.311631,284.319241 348.164012,284.176477 C282.608667,283.094666 130.780624,283.136567 73.9460526,291.715352 Z" id="Path-309" fill="url(#linearGradient-1)" opacity="0.057766" style="mix-blend-mode: normal;" transform="translate(249.586121, 305.400750) rotate(1.000000) translate(-249.586121, -305.400750) "></path>
                <path d="M304.063036,141.294574 C304.7765,141.283469 304.850983,141.701506 304.854903,142.232843 C304.858823,142.52586 304.890184,142.818877 304.886264,143.107987 C304.882344,143.686207 305.117552,144.006572 305.729092,144.080803 C306.344552,144.151127 306.634642,143.865924 306.795367,143.338494 C306.88161,143.057197 306.999214,142.791529 307.069777,142.510233 C307.218741,141.928106 307.453949,141.642903 308.167413,141.810899 C308.904398,141.982802 308.896557,142.404747 308.825995,142.959525 C308.778953,143.311145 308.775033,143.670579 308.731912,144.026107 C308.68095,144.448051 308.704471,144.784043 309.229768,144.912971 C309.688424,145.026271 310.103957,145.19036 310.397967,144.627768 C310.558693,144.31131 310.840942,144.057362 310.989907,143.736606 C311.272156,143.123615 311.644569,143.0529 312.244349,143.322866 C312.851969,143.592442 312.87157,143.967503 312.652042,144.486729 C312.499157,144.842647 312.401154,145.225522 312.232588,145.573236 C311.962099,146.131921 312.303151,146.417124 312.691244,146.694513 C313.075416,146.967996 313.408627,146.885951 313.722238,146.546052 C313.984887,146.260458 314.282817,146.006901 314.561146,145.733418 C314.99236,145.315381 315.372613,145.225522 315.866549,145.709977 C316.317364,146.151456 316.340885,146.491355 315.929271,146.944164 C315.690143,147.206316 315.556859,147.557936 315.325571,147.823214 C314.98844,148.213904 314.968839,148.511218 315.349092,148.909721 C315.697984,149.280876 315.984153,149.542637 316.49377,149.206254 C316.846582,148.976138 317.254275,148.823769 317.583566,148.573728 C318.116704,148.171318 318.473436,148.366663 318.806647,148.819862 C319.132018,149.261341 319.112417,149.64031 318.669443,150.00365 C318.367592,150.249394 318.108864,150.542411 317.822694,150.80847 C317.481643,151.121021 317.297397,151.417945 317.622768,151.894586 C317.916777,152.320437 318.175114,152.597826 318.724324,152.359506 C318.841732,152.308716 318.966196,152.272578 319.09316,152.240834 L319.476989,152.148534 C319.557237,152.126403 319.638583,152.092372 319.720381,152.055046 L319.88439,151.978548 C320.212848,151.82696 320.541651,151.714409 320.829434,152.19151 C321.194007,152.800985 321.213215,153.383112 320.504064,153.796851 C320.484463,153.836311 320.460942,153.871473 320.433501,153.902728 C320.425661,153.87538 320.421741,153.844125 320.417821,153.816777 C320.284536,153.844125 320.135179,153.855845 320.053249,153.93789 C319.704357,154.269585 318.916411,154.230907 319.108497,155.039634 C319.320184,155.938219 319.923884,156.043314 320.70399,155.903057 C321.027401,155.844453 321.359632,155.836395 321.690761,155.824491 L322.021154,155.809291 L322.032914,155.797571 L322.048595,155.809291 L322.048595,155.809291 C322.137778,156.240026 322.314,156.658796 322.285755,157.104599 L322.260282,157.297426 C321.910084,157.414893 321.556401,157.518296 321.206202,157.630901 L320.68439,157.80962 L320.506549,157.873677 C320.12294,158.012445 319.770738,158.173143 319.845482,158.786343 C319.919964,159.399724 320.09637,159.751345 320.766712,159.7826 C321.119524,159.794321 321.468416,159.977944 321.817307,159.981851 C322.558212,159.981851 322.51117,160.466306 322.534691,160.970295 C322.566052,161.607118 322.146598,161.614932 321.703231,161.626653 C321.378253,161.634466 321.052882,161.665722 320.727511,161.673535 C320.029728,161.685256 319.78668,162.056411 319.751399,162.728396 C319.718469,163.402621 320.033857,163.60106 320.560511,163.60864 L320.676549,163.607447 L320.70399,163.607447 C320.846138,163.706308 321.0251,163.768452 321.207473,163.827053 L321.389745,163.885701 C321.84208,164.035513 322.246135,164.232294 322.079956,164.994393 C321.962352,165.537451 321.778106,165.900792 321.088163,165.674192 C320.69615,165.549172 320.253175,165.572613 319.833721,165.529637 C319.390747,165.482755 319.096737,165.623403 318.951692,166.087932 C318.818407,166.521988 318.712564,166.897049 319.19474,167.186159 C319.50051,167.369783 319.79452,167.572941 320.080689,167.783914 C320.14295,167.829348 320.212902,167.868603 320.283953,167.906543 L320.425566,167.982116 C320.703909,168.135528 320.929513,168.319847 320.680469,168.846588 C320.343338,169.549829 319.967006,169.780335 319.249622,169.428715 C318.90465,169.256812 318.528318,169.1314 318.159826,169.010678 C317.752735,168.878144 317.521935,169.088214 317.32111,169.339826 L317.203043,169.493369 C317.183574,169.518987 317.164112,169.544419 317.144512,169.569363 C316.901464,169.881524 316.995547,170.171024 317.258196,170.432786 C317.552205,170.72971 317.842295,171.038354 318.132385,171.339185 C318.496957,171.714246 318.771366,172.054146 318.265669,172.565949 C317.814854,173.019148 317.434601,173.277003 316.881863,172.733945 C316.831881,172.683155 316.775529,172.63847 316.715931,172.596893 L316.344376,172.360733 L316.17624,172.225659 C315.686223,171.745502 315.30205,171.905684 314.851235,172.312001 C314.357299,172.761293 314.502344,173.132448 314.835555,173.573927 C315.066843,173.878664 315.227568,174.238098 315.423575,174.574091 C315.687007,175.02729 315.453681,175.280457 315.173188,175.507419 L315.031092,175.619521 L314.960999,175.675444 C314.588587,175.980572 314.243615,175.902434 313.930005,175.570348 C313.663436,175.284755 313.377266,175.019477 313.134218,174.718646 C312.840209,174.339677 312.534438,174.14824 312.060103,174.425629 C311.597527,174.691298 311.268236,174.984315 311.523045,175.582069 C311.660249,175.906341 311.738652,176.257961 311.868016,176.58614 C312.099304,177.176081 311.942499,177.523794 311.342719,177.812904 C310.707658,178.121548 310.460689,177.832438 310.205881,177.351891 C310.041235,177.039339 309.809948,176.758043 309.668823,176.437678 C309.431002,175.885765 309.025347,175.935426 308.617729,176.027148 L308.430062,176.07043 C307.943966,176.179823 307.853803,176.531444 307.943966,176.969015 C307.975327,177.129198 307.967486,177.293287 307.975327,177.457377 C308.057649,179.016227 308.057649,179.016227 306.458236,179.145154 C306.454316,179.133433 306.450396,179.121713 306.446476,179.109992 C306.458236,179.106085 306.466076,179.102178 306.477837,179.093974 C306.669363,178.662234 306.527158,178.290073 306.357413,177.925696 L306.243529,177.683363 C306.187907,177.562205 306.136785,177.440633 306.101504,177.316729 C305.921178,176.679905 305.37236,176.547071 304.76866,176.609581 C304.188481,176.672092 303.925832,177.035433 303.85527,177.578491 C303.804308,177.965273 303.765107,178.352055 303.604381,178.715396 C303.486777,178.977158 303.294691,179.129526 302.996761,179.098271 C302.706671,179.062719 302.526345,178.895113 302.463623,178.60991 C302.393061,178.289545 302.420502,177.961366 302.396981,177.641001 C302.35386,176.961202 301.989287,176.562699 301.330706,176.445492 C300.699565,176.332192 300.27227,176.633023 299.990021,177.179988 C299.813615,177.527701 299.699931,177.902763 299.527446,178.250476 C299.413762,178.484889 299.229516,178.589985 298.974707,178.539586 C298.696378,178.488796 298.488611,178.359869 298.46901,178.043411 C298.44941,177.683977 298.512132,177.332356 298.500371,176.972922 C298.47293,176.019641 298.065237,175.500024 297.328252,175.484397 C296.641999,175.465644 296.174513,175.980542 296.089207,176.826169 L296.077731,176.98855 L296.069891,176.996364 C296.04637,176.980736 296.015009,176.972922 295.983648,176.969015 C295.560274,177.027228 295.129059,177.433545 294.717445,176.965109 C294.333273,176.531444 294.650803,176.109499 294.788008,175.691462 C294.85073,175.507838 294.925212,175.328121 294.980094,175.14059 C295.16434,174.538929 294.86641,174.14824 294.407755,173.823968 C293.933419,173.491882 293.498285,173.542672 293.082751,173.933361 C292.824022,174.179104 292.580974,174.441257 292.302645,174.667466 C292.028236,174.890549 291.738146,175.011663 291.428456,174.742087 C291.134446,174.487749 291.154047,174.179104 291.310852,173.85913 C291.440216,173.597368 291.620542,173.362955 291.773428,173.112914 C292.059597,172.663621 292.357527,172.198701 291.867511,171.71034 C291.361814,171.210257 290.785555,170.995378 290.111292,171.42123 L289.702129,171.685433 C289.564434,171.771873 289.423309,171.852941 289.272384,171.917405 C288.978375,172.042425 288.696125,172.034612 288.472678,171.776757 C288.221789,171.48374 288.257071,171.179002 288.480518,170.889502 C288.696125,170.600782 288.962694,170.362462 289.244943,170.139769 C289.691838,169.780335 289.958407,169.385739 289.633036,168.799705 C289.284145,168.182417 288.798049,167.908934 288.092425,168.119906 C287.778815,168.213672 287.480885,168.346506 287.159434,168.416439 C286.783101,168.494968 286.43029,168.483247 286.257804,168.069117 C286.097079,167.682334 286.344047,167.459642 286.626296,167.268204 C286.920306,167.061139 287.237837,166.893142 287.535767,166.697798 C288.100265,166.33055 288.123786,165.830468 287.966981,165.244434 C287.810176,164.650587 287.406402,164.506032 286.869344,164.502125 C286.477331,164.502125 286.089238,164.540803 285.697225,164.560728 C285.316973,164.580263 285.085685,164.381011 284.991602,164.021186 C284.897519,163.650422 285.140567,163.498054 285.434577,163.380847 C285.767788,163.251919 286.104919,163.126899 286.453811,163.044464 C287.061431,162.904206 287.304479,162.486169 287.300559,161.903651 C287.292718,161.317618 287.002629,160.931226 286.43421,160.743695 C286.089238,160.630395 285.732507,160.626488 285.375775,160.583513 C284.975921,160.532723 284.693672,160.333472 284.685688,159.903713 C284.677991,159.419259 284.991602,159.223914 285.434577,159.180939 L285.694322,159.163112 L285.694322,159.163112 L286.214683,159.149683 L286.214683,159.149683 C286.794862,159.122335 287.233916,158.919177 287.312319,158.274149 C287.390722,157.63381 287.226076,157.114193 286.575335,156.844617 C286.304846,156.731318 286.010836,156.680528 285.744267,156.559414 C285.430656,156.422673 285.152327,156.25077 285.211129,155.844453 C285.277771,155.402975 285.607062,155.297488 285.995155,155.274047 C286.422449,155.250606 286.834063,155.410788 287.257437,155.38344 C287.919939,155.34398 288.264911,154.937664 288.280591,154.305138 C288.291617,153.865613 288.261297,153.395183 287.708349,153.40248 L287.590648,153.41046 L287.590648,153.445622 C287.563207,153.437808 287.531846,153.429994 287.500485,153.426087 C287.35152,153.152605 287.057511,153.054933 286.826223,152.88303 C286.461651,152.609156 285.908912,152.49234 286.320526,151.777379 C286.681178,151.152277 287.02615,150.913956 287.700412,151.26167 C288.014022,151.425759 288.382515,151.480455 288.703965,151.632434 C289.303745,151.921934 289.487991,151.476549 289.774161,151.117115 C290.111292,150.699077 289.946647,150.421688 289.629116,150.120857 C289.346867,149.851282 289.119499,149.523103 288.821569,149.280876 C288.24531,148.815565 288.480518,148.440894 288.84509,147.979881 C289.241023,147.471985 289.570314,147.589192 289.985848,147.925184 C290.256337,148.151784 290.593468,148.295948 290.875718,148.50692 C291.299092,148.827676 291.659744,148.894093 292.063517,148.448708 C292.412409,148.061925 292.561374,147.709915 292.224243,147.245385 C292.016476,146.959791 291.871431,146.624189 291.659744,146.338986 C291.24421,145.784208 291.463737,145.440401 291.953754,145.061433 C292.45945,144.670744 292.765221,144.862181 293.102352,145.25287 C293.35716,145.545887 293.64725,145.807649 293.909899,146.096759 C294.211749,146.428845 294.525359,146.537847 294.936973,146.272569 C295.340746,146.014714 295.709239,145.764673 295.485791,145.198174 C295.379948,144.928598 295.281944,144.651209 295.180021,144.381634 C294.968334,143.834278 294.701765,143.361935 295.521072,142.963432 C296.301178,142.58837 296.567747,142.932177 296.853917,143.518211 C297.010722,143.834278 297.25377,144.108151 297.406655,144.428516 C297.602662,144.83874 297.880991,144.928598 298.273004,144.752788 L298.354801,144.71793 L298.354801,144.71793 L298.521258,144.651555 C298.824962,144.529057 299.102391,144.384145 299.05311,143.92062 C299.013908,143.533838 299.04919,143.134945 298.974707,142.756367 C298.876704,142.228936 298.825742,141.826527 299.519605,141.654233 C300.197788,141.48272 300.578041,141.635089 300.723085,142.330516 C300.781887,142.611812 300.926932,142.87748 300.985734,143.158777 C301.099418,143.720978 301.397348,144.010479 302.001048,143.959689 C302.569467,143.9089 302.914438,143.670579 302.922279,143.057197 C302.926199,142.764181 302.988921,142.475071 302.985001,142.182054 C302.9654,141.416303 303.420135,141.303003 304.063036,141.294574 Z M310.366606,149.550451 C306.046622,147.014879 301.565913,146.757024 297.218489,149.214458 C292.702498,151.769565 290.424903,155.840546 290.64835,161.067967 C290.809075,164.810769 292.479051,167.967537 295.403468,170.299952 C298.966867,173.135964 303.047723,173.812247 307.438269,172.554228 C312.095384,171.179002 315.960632,166.525895 316.297764,161.591491 C316.654495,156.410953 314.69835,152.410296 310.366606,149.550451 Z M303.588215,151.585221 C308.813749,151.581317 312.796602,155.484692 312.796602,160.606236 C312.792682,165.607448 308.782388,169.623341 303.780302,169.635074 C298.778215,169.642876 294.771842,165.802792 294.669919,160.895346 C294.560155,155.660502 298.550848,151.58913 303.588215,151.585221 Z M264.072692,53.4208254 L264.25318,53.4240212 C266.528521,53.5051773 268.803862,53.607637 271.079204,53.5863335 C272.958392,53.576189 273.852276,54.4587622 274.096063,56.2543423 C274.238272,57.2485053 274.573478,58.2132492 274.756318,59.2063977 C275.030578,60.6976422 275.741622,61.5599264 277.397339,61.6918052 C278.453748,61.7831058 279.611734,62.117875 280.485303,62.6971271 C282.811433,64.2188051 284.345257,63.0613154 285.980658,61.5294928 C289.017833,58.6991717 289.048306,58.7296053 292.552738,61.0029922 C292.837156,61.1845791 293.111416,61.3671805 293.395833,61.5507963 C298.129356,64.5322708 298.129356,64.5322708 296.493954,69.9606036 C295.884488,72.0087822 300.232015,78.5428677 302.334674,78.6646019 C302.578461,78.6793115 302.824787,78.6359437 303.072383,78.5788807 L303.568891,78.4596451 L303.568891,78.4596451 L303.817709,78.4109889 C304.985853,78.2273731 306.153997,78.0549163 307.322141,77.8733294 C308.337919,77.7201471 309.069278,77.9950636 309.597483,78.9882121 C310.826573,81.2920327 311.852508,83.6749805 312.75655,86.1299544 C313.142546,87.17484 312.969864,88.1588584 312.075979,88.5555092 C307.626874,90.5631097 307.28151,93.981813 308.551232,98.0497656 C308.65281,98.3652602 308.612179,98.719304 308.622336,99.0642177 C308.703599,100.677196 309.292749,101.65107 310.97894,102.433213 C316.5454,105.029196 315.824198,103.304627 315.174101,110.213045 C315.133469,110.618826 314.889683,111.024607 314.889683,111.431402 C314.940472,114.575189 313.132388,115.396895 310.349158,115.244727 C308.175394,115.122993 306.489204,115.751953 305.910211,118.267794 C305.585162,119.708316 304.914749,121.158983 304.061496,122.366181 C302.771459,124.192194 303.076192,125.612427 304.203705,127.397863 C306.925988,131.668706 306.834568,131.729573 303.340294,135.543912 C302.893352,136.040994 302.456568,136.568509 301.98931,137.046316 C300.770377,138.273803 299.642864,139.003194 297.885569,137.60325 C295.32581,135.574346 292.694947,135.351166 290.175819,137.988742 C289.332724,138.88146 288.134106,139.530709 286.986278,140.008516 C284.903934,140.859641 284.203048,142.239296 284.19289,144.491379 C284.19289,149.381038 284.020208,149.432775 279.124161,150.487805 C274.979789,151.389653 274.929,151.421101 272.755237,147.565169 C271.769932,145.821326 270.520526,145.069617 268.478814,145.3141 C266.132368,145.597132 263.755449,145.475398 261.419161,145.110195 C260.017388,144.887016 259.194608,145.515976 258.473406,146.571006 C255.26355,151.278063 255.253392,151.278063 249.920561,149.401327 C249.311094,149.179162 248.721943,148.904246 248.132792,148.660777 C246.934175,148.06225 246.588811,147.190836 246.883386,145.841615 C247.421748,143.375482 247.106857,141.326289 245.593349,139.895912 C245.583191,139.895912 245.583191,139.885767 245.583191,139.885767 C244.943251,139.288255 244.089998,138.800303 243.003117,138.435101 C242.932012,138.414812 242.860908,138.384378 242.799961,138.353944 C242.48507,138.233225 242.190495,138.049609 241.926393,137.807155 L241.926393,137.807155 L241.805252,137.699097 C241.725494,137.622975 241.648747,137.53934 241.581028,137.452097 C240.504304,136.639521 239.386949,135.888826 238.361014,135.026542 C237.538234,134.32657 236.837348,134.296136 235.852044,134.763799 C229.564382,137.735129 231.118521,137.877152 226.913203,132.64258 C226.811625,132.510701 226.700905,132.388967 226.577996,132.267232 C224.719124,130.471652 224.658177,128.747084 226.588154,126.880492 C228.416553,125.115346 229.219017,123.208176 227.614089,120.651757 C226.567838,118.988055 226.070107,116.949007 225.491114,115.031692 C225.094961,113.713919 224.343286,113.195534 223.012617,112.95308 C217.588366,111.938628 217.588366,111.89805 216.999215,106.429139 C216.928111,105.759601 216.9789,105.079918 216.857006,104.420524 C216.633535,103.253905 217.039846,102.341912 217.812853,101.540495 L217.812853,101.540495 L217.853484,101.499917 L217.998316,101.498598 C218.676629,101.50462 219.384261,101.659456 219.924654,101.052544 C223.27672,100.6985 224.719124,98.8319081 224.59723,95.494361 C224.556599,94.448461 224.810543,93.2818411 225.277801,92.3384008 C226.496734,89.8428488 225.582534,88.2501591 223.490033,86.8502153 L223.490033,86.8502153 L223.219271,86.668539 L222.94878,86.4843238 C221.557959,85.5236334 220.317905,84.4065743 221.397531,82.2851812 C222.565675,80.3587368 223.694204,78.39983 224.912121,76.5139637 C225.690131,75.3228467 226.791853,75.4868484 227.865599,75.7256355 L227.865599,75.7256355 L228.157481,75.7916515 C228.302811,75.8246247 228.447027,75.8568242 228.589235,75.8850034 C233.007867,76.7868512 233.007867,76.8081547 235.679362,72.7097686 C239.000954,70.2547947 238.97048,70.2547947 237.873441,66.388718 L237.873441,66.388718 L237.81834,66.20086 L237.653356,65.6340831 C237.297834,64.3701276 237.069284,63.0809281 238.025807,61.8551319 C239.193951,61.7831058 239.965942,60.8903881 240.900457,60.374032 C246.111395,57.5122628 246.101238,57.5021183 250.509712,61.5193483 C251.728644,62.6159709 259.91581,61.1947237 260.677643,59.7440573 C260.748748,59.5918895 260.748748,59.4092881 260.799537,59.2571203 C261.155059,57.9596362 261.632474,56.6915711 261.845787,55.382928 C262.079416,53.9211027 262.841249,53.3732986 264.25318,53.4240212 Z M266.904359,71.0255035 C248.701628,70.9537521 234.04396,85.0556497 234.023623,102.665522 C234.003329,120.783635 248.224212,135.189869 266.223788,135.290722 C283.136482,135.3816 298.220776,120.661901 298.332511,103.974165 C298.444247,86.0386537 284.19289,71.0957754 266.904359,71.0255035 Z M265.87822,88.4939319 C274.238068,88.5649436 280.566362,94.9255577 280.546095,103.22479 C280.52573,111.26838 273.892704,117.730439 265.7868,117.608705 C257.773333,117.486971 251.424724,111.116212 251.36247,103.142619 C251.311973,95.0878701 257.904368,88.4330648 265.87822,88.4939319 Z M194.235745,33.3687105 C194.783249,33.3889995 195.007736,33.7034796 195.149945,34.0889714 L195.149945,34.0889714 L195.149945,34.0991159 L195.206367,34.2729333 C195.312552,34.6276661 195.387927,35.0164704 195.596887,35.2860248 C195.765216,35.5121027 195.831552,35.8135398 195.879765,36.1271623 L195.879765,36.1271623 L195.93078,36.4817967 C196.029409,37.1487864 196.188215,37.7638239 197.211973,37.7207096 C198.644219,37.6598425 198.491853,36.1584535 198.999741,35.2657358 C199.05053,35.1744351 199.091161,35.0831344 199.111477,34.9715447 C199.172424,34.7585097 199.192739,34.5150413 199.243528,34.2918618 C201.447765,33.7440577 202.453385,34.4440296 202.036916,36.8279919 C201.904865,37.629409 201.813445,38.6134274 202.859696,38.9684856 C203.733264,39.2525322 204.302099,38.7250171 204.657622,37.9743227 C204.696852,37.8938661 204.736275,37.8125893 204.776201,37.7312477 L204.776201,37.7312477 L204.8978,37.4877833 C205.413331,36.4788322 206.055892,35.5777672 207.430694,36.2598987 C208.682132,36.8848012 208.409497,37.733379 208.006852,38.5775925 L208.006852,38.5775925 L207.894863,38.807553 C207.781746,39.0370626 207.668386,39.2647056 207.58306,39.4858562 C207.349432,40.0843829 207.308801,40.632187 207.867478,41.0684013 C208.365209,41.4741821 208.964518,41.6162054 209.512022,41.2814362 C210.071715,40.9466671 210.610077,40.5104527 211.035688,40.0133712 C211.808694,39.1409425 212.529896,39.0902199 213.413623,39.8409144 C214.277033,40.5814644 213.982458,41.2104246 213.484727,42.0118417 C212.956523,42.8538369 211.757906,43.6856875 212.976838,44.8320183 C213.815636,45.6178285 214.486275,45.2984862 215.135424,44.8478758 L215.135424,44.8478758 L215.339875,44.7023502 L215.339875,44.7023502 L215.441886,44.6284445 L215.646118,44.4826072 C215.714328,44.4350014 215.782728,44.3887808 215.851488,44.3450814 C216.66411,43.8277108 217.507206,43.3509184 218.279196,44.3653704 C219.000398,45.3088108 218.502667,45.9986382 217.811939,46.7696217 C217.674809,46.9217895 217.502697,47.0679016 217.326687,47.2171414 L217.326687,47.2171414 L217.150529,47.3677639 C216.566679,47.8755814 216.054644,48.4521628 216.765688,49.4376305 C217.801781,50.8781524 218.837874,49.7622552 219.863809,49.3970524 C220.016176,49.3361853 220.168542,49.2651737 220.320909,49.2043065 L220.320909,49.2043065 L220.341225,49.2043065 L220.483136,49.1695933 C220.807689,49.105239 221.086551,49.1573881 221.326529,49.3260408 C221.55,49.4782086 221.73284,49.7216771 221.895364,50.0767353 C221.895364,50.0868798 221.905522,50.0970243 221.905522,50.1071688 C222.261044,50.928875 222.037573,51.5375462 221.255424,51.9737606 C220.666273,52.3085297 220.177684,52.7954667 219.762231,53.3229818 C219.376236,53.8200632 219.234027,54.2867112 219.325447,54.692492 C219.345763,54.7837927 219.376236,54.8750933 219.415851,54.9562495 C219.63018,55.3620303 220.117753,55.6359324 220.838955,55.7170885 C221.499211,55.7881002 222.179782,55.727233 222.860352,55.727233 C223.469819,55.727233 224.069128,55.7576666 224.130074,56.5793727 C224.180863,57.2184775 223.998023,57.7459926 223.408872,58.0604727 C223.033035,58.2532186 222.586093,58.2532186 222.23057,58.4966871 C221.935995,58.6894329 221.64142,58.8821788 221.397633,59.1155028 C221.062426,59.4401274 220.838955,59.8459083 220.920218,60.4545795 C221.057348,61.458887 221.729284,61.5182324 222.425082,61.5348491 L222.425082,61.5348491 L222.657197,61.5400431 L222.753315,61.5451154 L222.753315,61.5451154 L222.850195,61.5501877 C223.195559,61.5704767 223.540923,61.6110548 223.855814,61.7023555 L223.855814,61.7023555 L223.865972,61.7023555 L224.003313,61.7424973 C224.589506,61.9306072 225.053706,62.3074036 225.176325,63.0515766 C225.409954,64.4920985 224.191021,64.8370122 223.134612,65.1413478 C223.033035,65.1717814 222.921299,65.1920704 222.819721,65.222504 C222.088362,65.4152499 221.346844,65.5978512 221.265582,66.5210026 C221.174162,67.6267553 222.118835,67.7890676 222.951772,68.012247 C223.886288,68.26586 224.841118,68.6817854 224.617647,69.8484052 C224.485596,70.5990997 224.028496,70.9237243 223.41903,71.015025 C223.124455,71.0657476 222.799406,71.0556031 222.454041,71.0048805 C221.773471,70.9034353 221.072584,70.8932908 220.534222,71.1874819 C220.524064,71.1874819 220.513907,71.1976264 220.503749,71.2077709 C220.229489,71.3599387 220.016176,71.5831182 219.863809,71.9178873 C219.823178,72.009188 219.782547,72.1106332 219.752074,72.2120784 C219.345763,73.5714441 220.483433,74.0888146 221.468737,74.5960407 C222.514988,74.9003763 223.14477,75.3974578 222.474357,76.5945111 C221.955295,77.4973734 221.285897,77.7104084 220.36154,77.2336159 L220.36154,77.2336159 L220.242793,77.1723852 L220.002688,77.0499628 C219.117042,76.6066034 218.181682,76.2637998 217.466574,77.3350611 C216.752327,78.3822877 217.44317,79.080879 218.128026,79.7319799 L218.128026,79.7319799 L218.313597,79.9086017 C218.374698,79.967234 218.434688,80.0257 218.49251,80.0842261 L218.588602,80.1799445 C219.254385,80.8519609 219.759461,81.5680927 219.061345,82.4783329 C218.30967,83.4724959 217.405628,82.9957034 216.582848,82.5290555 C215.648333,82.0116849 214.774764,81.0783891 213.708198,82.2652979 C212.959367,83.10567 213.389829,83.735101 213.840239,84.3495317 L213.840239,84.3495317 L213.981785,84.5432923 C214.074788,84.6724384 214.163266,84.8018338 214.236402,84.9333068 C214.459873,85.3492321 214.844853,85.6840013 214.967762,86.0796376 L214.967762,86.0796376 L214.967762,86.0999266 L214.97792,86.1506492 L214.985538,86.302817 L214.985538,86.302817 L214.97792,86.4549848 C214.967762,86.5057074 214.957604,86.5665745 214.937289,86.6172971 C214.856027,86.7998985 214.713818,87.0027889 214.480189,87.2259683 C214.144982,87.550593 213.840249,87.7129053 213.575131,87.7636279 C213.575131,87.7636279 213.565989,87.7737724 213.555832,87.7636279 C213.129205,87.8447841 212.763525,87.6114601 212.397845,87.3071245 C212.367372,87.2868355 212.336899,87.2665464 212.30541,87.2361129 C212.184532,87.1346677 212.062639,87.0332225 211.940745,86.9317773 C211.786263,86.8070842 211.636629,86.6577343 211.485876,86.5057426 L211.304051,86.3234935 C210.785193,85.8115122 210.225775,85.3707892 209.391144,85.8666026 C208.111265,86.6375862 208.750189,87.7433389 209.116884,88.7780799 C209.421618,89.6302196 209.848244,90.5127929 208.649627,91.1518977 C207.440852,91.8112915 206.872016,90.9490073 206.455548,90.1881682 C205.866397,89.0925601 205.145195,88.311432 203.885631,88.7577909 C202.869853,89.1194651 202.967783,89.9260407 203.090758,90.7039346 L203.090758,90.7039346 L203.127313,90.9359687 L203.127313,90.9359687 L203.144113,91.0504525 C203.154271,91.1620422 203.174587,91.2736319 203.174587,91.3852216 L203.174587,91.3852216 L203.174587,91.4460888 L203.184133,91.6724149 C203.198006,92.0460244 203.196595,92.3996737 203.103482,92.7040093 C203.103482,92.7547319 203.083167,92.7953099 203.062851,92.8460325 C202.920642,93.1909462 202.636225,93.4547038 202.077547,93.5865825 C200.960192,93.8401955 200.60467,92.9779113 200.340568,92.1764942 C199.995203,91.1113196 199.751417,89.9142662 198.309013,90.0258559 C197.09008,90.124765 197.025324,90.9312544 197.009135,91.7562892 L197.009135,91.7562892 L197.004876,91.9919228 C197.000837,92.1877127 196.993581,92.3808338 196.968187,92.561986 C196.836136,93.4952818 196.754873,94.4691558 195.424205,94.4387222 C194.317008,94.3981441 194.083379,93.6778832 194.002117,92.7445873 C193.900539,91.567823 193.819277,90.1881682 192.265137,90.0968676 C191.173958,90.0301478 190.907301,90.8085447 190.684249,91.6006934 L190.614351,91.8503331 C190.555791,92.057131 190.494559,92.2588209 190.416422,92.4402517 L190.416422,92.4402517 L190.31931,92.6720907 C189.980291,93.4770255 189.625441,94.183786 188.46613,93.85034 C187.49969,93.5807857 187.488496,92.8789505 187.530608,92.1600796 L187.530608,92.1600796 L187.545382,91.9203946 C187.547761,91.8805319 187.549995,91.8407589 187.55193,91.801147 C187.562088,91.547534 187.602719,91.2939209 187.663666,91.0504525 C187.926752,90.0968676 187.64335,89.2954505 186.729151,88.9911149 C185.662584,88.6360567 185.012487,89.1534272 184.849962,90.2287463 C184.839805,90.2591799 184.829647,90.299758 184.829647,90.340336 C184.789016,90.9388627 184.545229,91.3852216 184.067814,91.6794127 C184.006867,91.7199908 183.935763,91.7605689 183.8545,91.801147 C181.497897,92.1562052 180.939219,91.2026203 181.792472,89.0824155 C182.137837,88.2201313 182.290203,87.2665464 181.264268,86.6375862 C180.167229,85.9579033 179.56792,86.7998985 178.877191,87.3882807 C178.777065,87.4752337 178.681291,87.5754367 178.587028,87.680431 L178.446411,87.8404586 C177.932363,88.4326487 177.421002,89.0418375 176.439325,88.2607094 C175.332128,87.3781361 175.921279,86.5057074 176.530745,85.6434232 C177.109739,84.8420061 177.465261,83.9087102 176.672954,83.1174376 C175.799386,82.2551534 174.834397,82.6305007 173.970986,83.3101835 C172.152745,84.7304164 171.258861,84.1116006 170.893181,82.285587 L170.893181,82.285587 L170.893181,82.2754425 L170.872865,82.1578412 C170.859322,82.0759336 170.845778,81.9880144 170.832234,81.9000952 C170.842392,81.9000952 170.842392,81.8899507 170.85255,81.8798062 C170.994759,81.778361 171.147125,81.6769158 171.299492,81.5653261 L171.299492,81.5653261 L171.540075,81.3910904 C172.416565,80.7446062 173.19561,80.0022246 172.711422,78.7654385 C172.229439,77.5295285 171.505225,77.7159124 170.758372,78.0515455 L170.563171,78.1416505 L170.350843,78.2414094 C170.068107,78.3729322 169.78783,78.4927661 169.521881,78.5321145 L169.521881,78.5321145 L169.406522,78.5505518 L169.177127,78.5888463 C168.568852,78.6872891 167.993938,78.7232586 167.591904,77.9031543 C166.992596,76.6858118 167.876322,76.259742 168.567051,75.6612153 C169.288253,75.0423996 170.517343,74.6873413 170.02977,73.3381202 C169.659215,72.2895825 168.894975,72.389502 168.13524,72.4889527 L167.895939,72.5190026 C167.776827,72.5326797 167.658873,72.5433299 167.543643,72.5464308 L167.543643,72.5464308 L167.277013,72.5468476 L167.061372,72.5493837 C166.699854,72.5564285 166.33234,72.5705181 166.027607,72.4859805 C166.007292,72.4859805 165.986976,72.4758359 165.966661,72.4758359 C165.611138,72.3541017 165.336879,72.0801996 165.225143,71.481673 C165.021988,70.3150531 165.682243,69.8281162 166.728494,69.5643586 C167.723955,69.3107456 168.770206,68.8948203 168.699102,67.6166107 C168.607682,66.0949327 167.277013,66.4499909 166.362814,66.3079676 L166.362814,66.3079676 L166.23185,66.2889643 L165.970311,66.2494781 C165.059285,66.1041262 164.218245,65.8578046 164.209299,64.6949889 C164.199208,63.4167794 165.357194,63.5080801 166.24092,63.2849006 C166.358126,63.2544671 166.479117,63.2279502 166.601524,63.2024671 L166.84752,63.1520251 C167.710191,62.9743222 168.564707,62.7530936 168.597524,61.4994651 C168.619617,60.4418988 167.934348,60.1546821 167.20894,59.9445003 L167.20894,59.9445003 L166.845981,59.8426192 C166.725938,59.8086588 166.60787,59.7736285 166.494865,59.7343185 C166.098712,59.5922952 165.692401,59.4807055 165.367352,59.2981042 C164.961041,59.0546357 164.707097,58.6894329 164.817816,57.9590275 C164.839148,57.8271487 164.869621,57.715559 164.910252,57.6141138 C164.910252,57.6039693 164.910252,57.5836802 164.92041,57.5735357 C165.245459,56.6605289 166.119027,56.8431303 166.962122,56.8938529 C167.947426,56.95472 169.125728,57.2692001 169.633617,56.0721467 C170.115547,54.9359605 169.368512,54.4380023 168.635131,53.9959573 L168.635131,53.9959573 L168.427039,53.8706771 C168.28999,53.7875006 168.15773,53.7043406 168.038846,53.6171728 C167.642693,53.3229818 167.226225,53.0795133 166.97228,52.7345996 C166.921491,52.6635879 166.88086,52.5925763 166.840229,52.5114201 C166.809756,52.430264 166.769125,52.3491078 166.748809,52.2578071 C166.718336,52.0954948 166.708178,51.9027489 166.748809,51.689714 C166.748809,51.6795695 166.748809,51.669425 166.758967,51.6592804 C166.769125,51.5882688 166.799598,51.5172572 166.819914,51.4462455 L166.819914,51.4462455 L166.830071,51.4259565 L166.871162,51.3112038 C167.049852,50.8619452 167.400313,50.5363601 167.916953,50.5738168 C167.947426,50.5738168 167.988058,50.5738168 168.018531,50.5839613 L168.018531,50.5839613 L168.038846,50.5839613 L168.294538,50.6282364 C168.803789,50.74234 169.301313,50.9969882 169.806299,51.1621989 C170.679868,51.436101 171.451858,51.4158119 172.020694,50.5129496 C172.53874,49.6912435 172.162903,49.0825723 171.604225,48.5043346 C171.319807,48.1898545 171.004916,47.905808 170.710341,47.6014723 C170.131348,47.0029457 169.877404,46.3232628 170.39545,45.5725683 C170.94397,44.7812957 171.685487,44.8928854 172.416847,45.2682327 C172.792685,45.4609786 173.148207,45.684158 173.493571,45.937771 C174.1843,46.4348525 174.895344,46.5362977 175.555599,45.937771 C176.32759,45.2377991 176.154908,44.4465266 175.647019,43.675543 C175.41339,43.3204848 175.159446,42.9958602 174.946133,42.6306574 C174.499191,41.8901075 174.509348,41.1495575 175.189919,40.5814644 C175.768912,40.0945274 176.398694,40.1148164 177.018319,40.6423315 C177.394156,40.9568116 177.841098,41.1698465 178.267725,41.4234595 C178.267725,41.433604 178.276867,41.433604 178.276867,41.433604 C178.74514,42.3973335 179.506973,42.661091 180.319595,41.9915527 C181.193164,41.2712917 180.878273,40.3177068 180.441488,39.4554226 C180.278964,39.1409425 180.11644,38.8366069 180.02502,38.5322713 C179.852338,38.0149007 179.862495,37.5279638 180.380542,37.1120384 L180.380542,37.1120384 L180.3907,37.1018939 L180.491525,37.0237435 C180.56451,36.9733967 180.64803,36.9260556 180.736064,36.8787145 C181.995628,36.1990316 182.523832,37.0917494 183.123141,37.9844672 C183.661503,38.7960288 184.250654,39.8612034 185.510218,39.2728212 C186.547696,38.7789676 186.252407,37.8599243 186.135072,36.9568467 L186.135072,36.9568467 L186.104447,36.6999173 L186.104447,36.6999173 L186.089211,36.5642343 C186.089211,36.5642343 186.079053,36.5439453 186.089211,36.5338008 C185.95716,35.661372 185.804793,34.6672091 187.125304,34.373018 C187.937926,34.1904166 188.425499,34.4237406 188.74039,34.8903885 C188.953703,35.1744351 189.095912,35.5497823 189.217805,35.9657076 C189.492065,36.909148 189.817114,38.1062014 191.117309,37.9743227 C192.447977,37.8424439 192.397188,36.655535 192.458135,35.6309385 C192.529239,34.6063419 192.630817,33.5107338 193.981801,33.378855 C194.073221,33.3687105 194.164641,33.3687105 194.235745,33.3687105 Z M215.292811,63.6906814 C215.130286,52.2375181 205.490559,43.0871608 193.565332,43.5132307 C183.326296,43.8784334 173.869409,52.8867674 174.235089,64.481954 C174.417928,75.5496256 183.935763,84.7405609 195.017894,84.568104 C206.252392,84.3956472 215.455335,74.9206653 215.292811,63.6906814 Z M194.97729,49.4450699 L195.302515,49.4473692 C202.950303,49.579248 209.339543,56.1731862 209.238981,63.8333134 C209.574187,72.1619645 202.362168,78.653443 194.651402,78.6130541 C186.434778,78.5621423 180.065854,71.9895076 180.176574,63.6902756 C180.279167,55.5746595 186.932509,49.305346 195.302515,49.4473692 Z M242.556175,2.72231777 C243.084379,0.662980161 244.404889,0.24604038 246.111395,0.64269112 C246.384672,0.705325352 246.67317,0.730375244 246.965915,0.746232242 L246.965915,0.746232242 L247.259669,0.760076476 C248.388037,0.809461332 249.525063,0.862827209 250.052612,2.51942736 C251.373122,6.68882517 254.410297,7.51053131 257.813151,4.83237797 C259.280928,3.63298 260.257472,4.21378369 261.171791,4.98883366 L261.381879,5.17041763 L261.381879,5.17041763 L261.48646,5.26244222 L261.7029,5.45276717 C262.100058,5.79914834 262.501335,6.123429 262.942827,6.29217443 C264.486809,6.89171558 264.202391,8.21050321 263.836711,9.51914632 C262.912354,12.7755373 265.512744,15.8290379 268.824178,15.2305112 C270.571315,14.9150166 271.444884,15.6352776 271.881668,17.0565248 C272.015323,17.4970106 272.249571,17.9311736 272.48019,18.3665937 L272.617293,18.6280573 C273.202291,19.7622454 273.621855,20.91518 272.044192,22.2200856 C269.301593,24.4924582 269.931375,28.6415669 273.15139,30.2849792 C274.10622,30.7709017 275.02042,31.2994312 274.83758,32.5167737 C274.593794,34.149027 274.664898,35.8746099 273.567858,37.2846982 C273.212336,37.5890338 272.775552,37.4774441 272.369241,37.5078776 C271.922299,37.5383112 271.485515,37.6499009 271.079204,37.8213433 C271.018257,37.8426468 270.957311,37.8720659 270.896364,37.912644 C270.794786,37.944092 270.703366,38.0049591 270.601788,38.0658262 C270.591631,38.0658262 270.581473,38.0749563 270.571315,38.0861153 C270.510368,38.1064043 270.469737,38.1368379 270.418949,38.1774159 C270.408791,38.166257 270.388475,38.1774159 270.378317,38.2068351 C268.946071,39.180709 268.001398,41.0077371 268.082661,42.7931726 C268.092818,43.1685199 268.163923,43.5438671 268.275658,43.8989254 C268.285816,43.9080554 268.275658,43.9192144 268.275658,43.9192144 C268.306132,44.0206596 268.336605,44.1018158 268.377236,44.1931164 C268.458498,44.3341253 268.53976,44.4873075 268.641338,44.6090418 C269.829798,46.0394191 270.398633,47.5408081 268.844494,49.0310381 C266.518363,51.2841361 265.990159,52.765236 263.288191,51.0913902 C262.323203,50.5019936 261.368372,50.7667655 260.393226,50.9493669 C257.965518,51.9830935 255.476863,52.8971148 255.964436,56.3858153 C256.177749,57.8882187 254.755661,58.0911091 253.729726,58.263566 C253.454483,58.3116707 253.1492,58.4192596 252.834461,58.539029 L252.834461,58.539029 L252.562849,58.6435682 L252.562849,58.6435682 L252.312262,58.738983 C251.393458,59.081598 250.489724,59.3103059 250.093243,58.2939996 C249.010055,55.5033343 247.065597,55.3657964 245.019131,55.4052988 L245.019131,55.4052988 L244.657086,55.4136037 C244.59662,55.4151261 244.536105,55.4166757 244.475559,55.4181894 L244.112076,55.4263378 C243.809128,55.4319296 243.506388,55.4334754 243.206272,55.4231003 C241.956866,55.3825222 240.920773,55.5042565 240.362095,56.9143448 C239.803418,58.3234187 238.584485,58.8306447 237.070977,58.6084797 C234.531533,57.9592304 232.885974,56.6708763 233.607176,53.7086764 C233.657965,53.485497 233.597018,53.1913059 233.49544,52.978271 C233.099287,52.0956977 230.366846,50.5334416 228.335291,49.8233252 C228.375922,49.8639032 228.416553,49.9044813 228.436869,49.9541895 C228.538447,50.1783834 228.66034,50.3711293 228.782233,50.5334416 C228.721286,50.5019936 228.650182,50.482719 228.589235,50.4725745 L228.589235,50.4725745 L228.589235,50.4614155 L228.268591,50.3703826 C227.835854,50.2576729 227.381273,50.1804123 226.892887,50.1479498 C226.750678,50.1266463 226.608469,50.1175163 226.466261,50.1175163 C226.252947,50.1479498 226.039634,50.1580943 225.836479,50.1672244 L225.836479,50.1672244 L225.704428,50.1672244 L225.508796,50.1710943 C225.377122,50.1689152 225.243942,50.157418 225.115277,50.1378053 C225.592692,49.9947676 226.05995,49.6914464 226.506892,49.4581224 C223.694204,50.0454902 221.834316,48.6049683 221.44832,45.5930602 C221.245165,45.9176849 221.154761,46.2727431 221.458478,46.6785239 C222.057787,47.479941 222.189838,48.0571642 222.047629,48.5136676 C221.295954,47.5610972 221.011536,46.2625986 221.377216,44.8525103 C223.04817,43.1695344 222.603767,41.5606236 221.942852,39.9638416 L221.942852,39.9638416 L221.798605,39.6218371 C221.774242,39.5648598 221.749776,39.5078923 221.725293,39.4509318 L221.725293,39.4509318 L221.57889,39.1092303 C221.409467,38.710624 221.247704,38.3120845 221.123272,37.912644 C220.767749,36.7663132 220.107494,36.0267777 218.746352,36.1282229 C217.679786,36.1992345 216.755429,35.8837399 216.288171,34.7779872 C215.089554,31.9476661 215.810756,29.878184 218.533039,28.428532 C220.58491,27.3420539 221.387374,22.4331206 219.731656,20.8505754 L219.731656,20.8505754 L219.533897,20.6628227 L219.333845,20.4763812 C218.468842,19.6692167 217.673014,18.8581916 218.685406,17.5130283 C219.843392,15.9812057 220.066863,13.4653647 223.104037,13.9624462 C226.374841,14.5001057 229.178386,11.3045819 228.335291,8.04819088 C227.918822,6.46463128 228.375922,5.67437315 229.645644,5.0454129 C230.448108,4.64876216 231.26073,4.28457388 232.073352,3.90922663 C232.94692,3.1889657 233.739227,3.3918561 234.511218,4.11211704 C235.171473,4.74107729 235.750466,5.47148275 236.603719,5.85697452 L236.603719,5.85697452 L236.962843,5.83113609 L237.686953,5.78304909 C238.653491,5.71556326 239.61319,5.61710272 240.4332,5.27772241 C240.443358,5.26859234 240.463673,5.26859234 240.473831,5.25844782 L240.473831,5.25844782 L240.483989,5.2483033 L240.650441,5.17652767 C241.527041,4.77340637 242.221566,4.03991192 242.556175,2.72231777 Z M246.883386,10.8886565 C243.480532,10.7466333 239.945627,10.4311387 237.081134,12.9784277 C232.530452,15.3928235 229.107282,18.8003679 227.400776,23.7721972 C225.318432,29.8183313 226.049792,35.4982482 229.523751,40.8555693 C229.838642,41.3425063 230.173848,41.8294432 230.498897,42.3163802 C231.920985,45.5930602 234.927686,47.1553163 237.893756,48.2813581 C248.671154,52.3797443 259.082873,47.6929759 263.542136,37.0605043 C268.387394,25.4764766 259.468868,11.3958826 246.883386,10.8886565 Z M244.841572,21.4894831 C249.910301,21.4682752 253.760098,25.0097273 253.831202,30.0008312 C253.912464,35.2049701 250.275981,38.8772864 245.014254,38.9178645 C240.382309,38.948298 236.59346,35.144103 236.532513,30.4167565 C236.126202,26.5719834 239.549372,21.5200123 244.841572,21.4894831 Z" id="Combined-Shape" fill="url(#linearGradient-2)"></path>
                <g id="Group" transform="translate(306.360511, 202.460707) scale(-1, 1) translate(-306.360511, -202.460707) translate(200.972495, 93.151277)">
                    <g id="Group-7" transform="translate(6.862475, 187.247544)">
                        <polyline id="Path-14" stroke="#332767" points="18.1985411 0.188332946 93.477467 6.89447201 15.2210385 14.111262 93.477467 21.2201481 18.1985411 28.2788682"></polyline>
                        <polyline id="Path-14-Copy" stroke="#332767" transform="translate(54.349253, 14.233601) scale(-1, 1) translate(-54.349253, -14.233601) " points="18.1985411 0.188332946 93.477467 6.89447201 15.2210385 14.111262 93.477467 21.2201481 18.1985411 28.2788682"></polyline>
                        <line x1="1.96070727" y1="0.188332946" x2="106.627551" y2="0.188332946" id="Path-18" stroke="#332767"></line>
                        <path d="M1.96070727,31.0559764 C1.96070727,29.5222219 3.20406099,28.2788682 4.73781553,28.2788682 L103.850443,28.2788682 C105.384197,28.2788682 106.627551,29.5222219 106.627551,31.0559764 L106.627551,31.0559764 L106.627551,31.0559764 L1.96070727,31.0559764 Z" id="Path-19" fill="#332767"></path>
                        <polygon id="Path-52-Copy-4" fill="url(#linearGradient-3)" style="mix-blend-mode: multiply;" opacity="0.307775299" transform="translate(102.217053, 21.278594) scale(-1, 1) translate(-102.217053, -21.278594) " points="203.685209 29.6674223 72.8756259 11.7559971 0.748896265 11.7559971 98.1100039 30.8011907"></polygon>
                    </g>
                    <g id="Group-34">
                        <g id="Group-166" transform="translate(77.047096, 32.202978) rotate(73.000000) translate(-77.047096, -32.202978) translate(68.059329, -45.316518)">
                            <polygon id="Path-116" fill="#000000" points="8.39990654 -6.51662738e-15 5.40974052 4.573727 5.40974052 74.2520098 11.4520336 74.2520098 11.4520336 4.573727"></polygon>
                            <polygon id="Path-116-Copy" fill="#9EB6CA" points="8.39990654 2.13419547e-13 5.40974052 4.573727 5.40974052 19.2239836 11.4520336 19.2239836 11.4520336 4.573727"></polygon>
                            <path d="M13.2736217,72.8918335 C14.4716578,72.8918335 15.442858,73.8630337 15.442858,75.0610698 C15.442858,76.0981704 14.7150604,76.9652847 13.7423441,77.1795337 L13.742283,84.2700244 L2.86615543,84.2700244 L2.86575583,77.174755 C1.90367759,76.9526609 1.18642942,76.0906265 1.18642942,75.0610698 C1.18642942,73.8630337 2.1576296,72.8918335 3.35566574,72.8918335 L13.2736217,72.8918335 Z" id="Combined-Shape" fill="url(#linearGradient-4)"></path>
                            <path d="M-1.09908671e-12,86.2700244 L-1.09908671e-12,145.526749 C-1.09081373e-12,150.191038 3.7811532,153.972191 8.44544206,153.972191 C13.1097309,153.972191 16.8908841,150.191038 16.8908841,145.526749 L16.8908841,86.2700244 C16.8908841,85.1654549 15.9954536,84.2700244 14.8908841,84.2700244 L2,84.2700244 C0.8954305,84.2700244 -1.09922198e-12,85.1654549 -1.09908671e-12,86.2700244 Z" id="Path-118" fill="#F7B500"></path>
                            <path d="M-1.09908671e-12,139.463783 L-1.09908671e-12,145.717987 C-1.09852843e-12,150.276658 3.69553298,153.972191 8.25420392,153.972191 L8.63668019,153.972191 C13.1953511,153.972191 16.8908841,150.276658 16.8908841,145.717987 L16.8908841,139.463783 C16.8908841,138.359213 15.9954536,137.463783 14.8908841,137.463783 L2,137.463783 C0.8954305,137.463783 -1.09922198e-12,138.359213 -1.09908671e-12,139.463783 Z" id="Path-118-Copy" fill="url(#linearGradient-5)"></path>
                        </g>
                        <g id="Group-33" transform="translate(8.987768, 32.807158)">
                            <g id="Group-10" transform="translate(16.187393, 144.945399)">
                                <mask id="mask-7" fill="white">
                                    <use xlink:href="#path-6"></use>
                                </mask>
                                <g id="Clip-9"></g>
                                <path d="M0.408001711,9.73171245 C4.76811602,9.84140086 12.1505378,9.86425261 16.4740893,9.29034718 C18.2728486,7.48375295 12.0702302,5.956603 8.05223925,4.7872462 C6.48722068,4.33151697 5.93224956,2.8565996 5.61624247,1.25762986 C3.56350223,0.925300089 2.19305001,-0.26560265 1.64395505,1.18254553 C0.728579148,3.59634346 0.408001711,9.4555327 0.408001711,9.73171245" id="Fill-8" fill="#000000" mask="url(#mask-7)"></path>
                            </g>
                            <path d="M51.2874231,154.235942 C55.6475374,154.344978 63.0299591,154.368482 67.3535106,153.794577 C69.15227,151.98733 62.9503045,150.46018 58.9316606,149.291476 C57.3666421,148.835747 56.811018,147.360829 56.4956639,145.76186 C54.4429236,145.42953 53.0724714,144.238627 52.5233764,145.686775 C51.6080005,148.100573 51.2874231,153.959762 51.2874231,154.235942" id="Fill-11" fill="#000000"></path>
                            <path d="M56.1801138,107.31457 C53.8557642,91.9392584 52.5839009,86.8041433 47.728883,69.3114535 C40.8505056,70.1073474 26.986674,62.4683331 24.7250035,71.0064006 C22.0461252,81.1225448 24.369169,106.442939 23.1867541,109.392774 C17.4000376,123.827246 19.0956376,133.248044 17.4033021,146.152102 C17.1878427,147.794164 20.4798008,148.031822 22.209352,147.33517 C26.2332191,130.52738 30.4816863,119.984234 32.3672823,111.004149 C32.665008,109.586687 35.830955,91.6976828 37.6342847,86.8433177 C42.5395765,100.978759 47.6348643,105.856628 47.2692363,110.799789 C46.4570197,121.782341 52.1379653,140.580845 52.1014025,146.163202 C52.090956,147.792858 55.6310188,147.015246 57.0915723,146.291171 C57.762108,145.958842 57.4839695,115.938821 56.1801138,107.31457" id="Fill-13" fill="#180F68"></path>
                            <path d="M34.2286554,27.5221932 C35.1864703,27.7337351 39.2821572,27.010314 39.7986068,26.0949381 C41.9434069,22.2937123 41.9329604,17.3675275 39.7731434,13.5754424 C37.6133264,9.78335741 35.8818165,9.59140269 31.5726289,10.2802198 C20.5842007,12.0371931 26.7202226,25.8664205 34.2286554,27.5221932" id="Fill-15" fill="#F8CCAA"></path>
                            <path d="M29.6701226,24.0730803 C30.4235775,26.2159218 31.4584355,30.3194435 31.4277488,32.5902548 C33.6397984,33.897375 35.6305125,32.6137595 38.1781564,32.2814297 C37.2510282,29.9864609 36.323247,27.692145 35.3961188,25.397829 C34.9887047,24.3903932 34.5669267,23.3594528 33.8271828,22.5635589 C33.086786,21.7689708 31.9487688,21.2492567 30.9028114,21.5437178 C29.857507,21.838179 29.1308213,23.1511754 29.6799162,24.0880972" id="Fill-17" fill="#F8CCAA"></path>
                            <path d="M24.6435206,14.0783116 C25.5680372,10.8444622 28.813639,9.41067798 30.9297112,8.84983069 C31.6674963,8.65461143 38.9585111,7.32463946 39.1726646,5.56244292 C40.0416841,7.14574289 40.6704338,8.86093011 41.0301856,10.6309615 C41.1914537,11.4262025 41.2704555,12.3428842 40.7474768,12.9631461 C40.4060064,13.3672956 39.8784573,13.55468 39.3737601,13.7126835 C37.4418076,14.3166227 35.4556639,14.7462356 33.4460156,14.9943404 C32.3615367,15.447458 32.844688,16.4914566 33.9174146,18.7459452 C33.8403715,19.3472727 32.9556823,19.4282332 32.6102943,19.0573819 C32.1147378,18.5259154 31.7386632,17.2527464 30.4628826,18.0231769 C29.5605648,19.9296659 30.8513623,22.1018882 32.0311657,22.4675162 C32.492771,22.60985 32.6670973,23.1576391 32.3987524,23.5591771 C31.4252678,25.0184247 29.7734125,25.4506492 28.7450837,24.5620425 C26.3332445,22.4786157 23.7999645,17.0294521 24.6435206,14.0783116" id="Fill-19" fill="#27282D"></path>
                            <path d="M37.3589537,23.7998387 C37.7977074,24.0316207 38.2678006,24.1315155 38.7627042,24.072101 C39.1531427,24.0250917 39.7388005,23.8755759 39.9157383,23.4857903 C39.9973517,23.3068937 39.8641587,23.1345262 39.6708981,23.1671716 C39.3281219,23.2259332 39.0499834,23.4910136 38.694149,23.5647921 C38.2913052,23.6483642 37.8891144,23.5928671 37.5097753,23.4407397 C37.3034566,23.3578205 37.1643874,23.6966793 37.3589537,23.7998387" id="Fill-21" fill="#FE7972"></path>
                            <path d="M71.5626075,6.34377697 L71.4328358,7.32556654 C69.9747852,18.4347006 68.9241909,28.8629568 65.8157183,30.9414029 C65.1814787,31.3656455 61.2948455,33.563126 57.0865385,35.8054374 L56.3184996,36.2132397 C53.6461391,37.6270893 50.9164601,39.0170967 48.8650388,39.9494519 C49.049487,45.4806655 48.0151262,51.2440172 48.6801035,57.4471502 C49.2135287,62.4209973 49.4165828,70.2800413 47.9645172,70.1599064 C40.4110337,70.3205216 32.7785485,70.6293467 25.2237593,70.6293467 C23.1945237,70.6293467 24.0418405,63.082784 24.2479921,55.6161164 L24.265333,54.9165831 C24.3009113,53.285971 24.3005485,51.6705864 24.2274229,50.1502593 C24.1558925,48.6613165 24.0230224,47.3069017 23.8582412,46.0839601 C17.6993577,49.1730902 12.2186115,52.5565841 6.90618653,52.8028907 C5.1602783,52.883645 4.60558288,46.8403765 4.58200187,40.581634 L4.58182585,39.7819303 C4.60181621,33.6488759 5.10365407,27.5502614 5.46848487,27.0254614 C6.22193978,25.9416355 6.61498992,26.3993234 7.77781764,27.0254614 C7.89725303,30.1280531 8.27917126,32.3633959 8.67990362,34.5367922 L8.86530565,35.5384321 C9.26605965,37.7118285 9.64814028,39.9471712 9.7678788,43.0497629 C14.2384238,39.3911629 19.6705553,34.9171826 24.4730906,32.8201025 C29.1563786,28.709083 39.8844457,28.9327911 44.7593957,28.6513309 C52.5168949,27.0151939 59.1875743,26.8285624 62.4245183,24.5742519 C63.4430535,23.8645418 66.5326104,15.7678395 67.9017568,6.51549156 C69.2251997,6.2739159 70.3024966,5.87237797 71.5626075,6.34377697 Z" id="Combined-Shape" fill="url(#linearGradient-8)"></path>
                            <path d="M8.52454761,23.2276308 C7.91146775,22.9292522 7.58762578,24.4727248 6.90599066,24.4727248 C3.60750346,24.4727248 4.41645549,21.6861169 2.30038324,22.0099589 C1.17999448,22.4082323 0.756257708,23.8400578 0.931236838,24.534751 C1.51558879,26.8597536 3.04730908,27.3128712 4.58098811,27.7868818 C7.47924318,28.6820176 10.8273513,24.3480196 8.52454761,23.2276308" id="Fill-29" fill="#F8CCAA"></path>
                            <path d="M72.8110967,1.00802343 C72.3207634,-0.175044421 70.3698766,0.332264476 70.0799858,0.696586695 C69.2116193,1.78759463 69.783566,4.49977115 68.1506451,4.80402591 C67.2679145,4.96921143 66.3642909,4.99663354 66.4707148,5.56270408 C66.6829097,6.70006843 69.586388,7.18060813 70.9411704,6.61519049 C71.6920137,6.30244794 72.4761553,5.96424201 72.9782409,5.32439295 C74.1286634,3.85731047 73.5247242,2.73039263 72.8110967,1.00802343" id="Fill-31" fill="#F8CCAA"></path>
                        </g>
                    </g>
                </g>
                <g id="Group-2" transform="translate(44.115914, 108.836935)">
                    <g id="Man" transform="translate(0.832244, 0.000000)">
                        <path d="M162.06036,45.3641141 C166.667751,44.9033751 172.394079,43.1262388 175.290152,37.5315507 C180.095002,28.3167702 173.710476,22.3929827 173.710476,22.3929827 L170.024564,31.4761235 L166.99685,32.5292413 L158.440268,29.1724284 L147.053432,24.7624977 L144.552278,26.1447148 L144.025719,27.5269318 C143.894079,27.8560311 144.091538,28.1851305 144.354818,28.3167702 L148.501469,29.9622667 L148.30401,31.1470242 C147.579991,35.6227747 146.461053,39.2428671 143.23588,42.3364005 L75.6403131,96.9867652 C73.0733385,99.4879199 73.0075186,103.568751 75.5086733,106.069906 C78.0756479,108.636881 82.1564793,108.571061 84.657634,105.938266 L150.476065,49.7082249 C153.964518,46.0223127 156.992231,45.890673 162.06036,45.3641141 Z M162.192,33.12162 C162.718559,33.3190796 162.981839,33.9772782 162.784379,34.5038371 L160.809783,39.3745068 C160.612324,39.9010657 159.954125,40.1643451 159.427566,39.9668855 C158.901007,39.7694259 158.637728,39.1112273 158.835187,38.5846684 L160.809783,33.7139988 C161.007243,33.1874399 161.599621,32.9241604 162.192,33.12162 Z M159.098467,32.0026824 C159.625026,32.200142 159.888305,32.8583406 159.690845,33.3848994 L157.71625,38.2555691 C157.51879,38.782128 156.860591,39.0454075 156.334033,38.8479479 C155.807474,38.6504883 155.544194,37.9922897 155.741654,37.4657308 L157.71625,32.5950611 C157.913709,32.0685022 158.571908,31.8052228 159.098467,32.0026824 Z M152.582301,36.3467932 L154.556896,31.4761235 C154.754356,30.9495646 155.412555,30.6862852 155.939113,30.8837447 C156.465672,31.0812043 156.728952,31.7394029 156.531492,32.2659618 L154.556896,37.1366315 C154.359437,37.6631904 153.701238,37.9264698 153.174679,37.7290103 C152.64812,37.5315507 152.384841,36.8733521 152.582301,36.3467932 Z M82.8804978,98.8297213 C84.2627148,100.211938 84.2627148,102.449814 82.8804978,103.897851 C81.4982807,105.280068 79.1945856,105.280068 77.8123685,103.897851 C76.4301514,102.515634 76.4301514,100.211938 77.8123685,98.8297213 C79.1945856,97.4475043 81.4982807,97.4475043 82.8804978,98.8297213 Z M162.06036,17.3906733 L157.51879,27.000373 L149.225488,23.7093799 C149.225488,23.7093799 154.161977,17.9172322 162.06036,17.3906733 L162.06036,17.3906733 Z" id="Shape" fill="#F7B500" fill-rule="nonzero" transform="translate(125.377159, 62.672688) scale(-1, 1) rotate(20.000000) translate(-125.377159, -62.672688) "></path>
                        <g id="Group-27" transform="translate(112.888778, 0.000000)" fill="#FFFFFF" fill-rule="nonzero">
                            <path d="M42.8656272,46.267344 C42.7730765,45.8728477 42.6329522,45.4910531 42.4483326,45.1303476 C41.2783494,42.8867562 38.076226,43.1556466 35.9187291,42.9791233 C35.271504,42.9261744 34.6206214,42.8654191 33.9679833,42.8054697 C33.7426599,42.8033668 33.5173126,42.80127 33.2919413,42.7991791 C30.951238,42.7774046 28.6125298,42.7277118 26.2728631,42.6790945 C25.7106562,42.776663 25.1644991,42.9509259 24.6496779,43.1970058 C24.5368335,43.2959539 24.4188697,43.3901123 24.3114352,43.4941618 C23.9950198,43.8897861 23.7055424,44.3062221 23.4449586,44.7406567 C23.5520966,46.8026054 23.1878947,49.01587 23.730543,50.9130588 C23.7790286,50.9835225 23.8275171,51.054148 23.879148,51.1215803 C24.0788261,51.2956507 24.2927323,51.4526918 24.5186237,51.5910569 C24.5436701,51.5932973 24.5685718,51.5969355 24.5932123,51.6019546 C24.6166133,51.6076761 24.6403109,51.6113875 24.663712,51.6168364 C24.7701045,51.5829426 24.8835718,51.5778082 24.9925906,51.6019546 C25.2500678,51.6543061 25.4991918,51.7415668 25.7330605,51.8613192 C25.7690992,51.8785333 25.8033044,51.8993483 25.8351539,51.9234464 C26.7810607,51.976831 27.7113868,52.1879814 28.587661,52.5481661 C28.7218605,52.5639435 28.8551793,52.5808383 28.9866649,52.600474 C29.2123392,52.6629919 29.3812939,52.8506858 29.4198178,53.0816691 C29.5134486,53.1743807 29.5960721,53.2775837 29.66605,53.3892316 C29.7385259,53.4692758 29.7873414,53.5678797 29.8070523,53.6740461 C30.159407,54.6243735 29.566955,55.8272295 28.8583696,56.7989988 C29.028116,56.7439111 29.1979313,56.6889702 29.3678155,56.634176 C29.5271774,56.5447356 29.684779,56.4522228 29.8406202,56.3566376 C29.8869133,56.2758998 29.9511444,56.2068825 30.0283527,56.154916 C32.0001631,54.8126542 33.4255237,53.2478458 35.9089697,52.9374705 C36.572799,52.8545184 37.2808722,52.8456697 37.9835325,52.8177873 C38.0803599,52.8092141 38.177343,52.8007667 38.2759167,52.7926848 C39.1836447,52.7563494 40.0740757,52.5328587 40.8913725,52.1362275 C41.9628418,51.2962823 42.5333516,50.0056064 42.7216682,48.6796912 C42.8472477,47.8820898 42.8954581,47.0742196 42.8656272,46.267344 L42.8656272,46.267344 Z M38.4724591,49.1487395 C34.6355391,50.4322411 30.2138506,49.6598659 26.3753939,48.7493252 C25.6333155,48.5733111 25.9493943,47.4322198 26.6900858,47.6079193 C30.326695,48.4705766 34.5206487,49.224005 38.1578541,48.0073187 C38.8831007,47.7647231 39.1912833,48.9082917 38.4724591,49.1487455 L38.4724591,49.1487395 Z M38.3151491,46.5737473 C34.4070734,46.825617 30.5325625,46.2031649 26.6326016,46.0745041 C25.8715825,46.0493836 25.8707048,44.8656719 26.6326016,44.8908134 C30.5324906,45.0194712 34.4071453,45.6419053 38.3151491,45.3900536 C39.0770489,45.3409689 39.0715641,46.5250101 38.3151491,46.5737533 L38.3151491,46.5737473 Z" id="Shape"></path>
                            <path d="M15.3295496,26.087618 C15.2362584,25.9446036 15.1305115,25.8101131 15.0135428,25.6857159 C14.7380413,25.4046902 14.4142988,25.1754388 14.057738,25.0088829 C12.230842,24.8279287 10.3929515,24.7841752 8.55951419,24.8779903 C7.66571528,24.9635907 6.77250085,25.0556788 5.87987091,25.1542548 C4.65625097,25.3347648 3.43390539,25.5232646 2.21283416,25.7197541 C1.6580681,25.8434443 1.10257941,25.9635851 0.54396638,26.068585 C0.451439837,26.2112524 0.360310743,26.3541854 0.278259756,26.4998522 C0.174739592,26.9810954 0.0794261212,27.4630693 0,27.9475697 C0.0862672459,29.3604439 0.334234767,30.9464663 0.966997617,32.1983656 C0.977406753,32.226907 0.986681458,32.2554856 0.997319075,32.2840164 C1.02860185,32.3665385 1.07392771,32.4430254 1.13129088,32.5100924 C1.45863768,33.0968467 1.93153606,33.5894412 2.50445204,33.9404453 C4.18992449,34.9326077 10.6187538,33.5108014 11.443278,35.6750995 C11.4382891,35.9786265 11.4719459,36.2815547 11.5434374,36.5765844 C11.5762681,36.7485748 11.682761,36.8975661 11.8348613,36.9843074 C11.996822,36.7525381 12.1506742,36.5155483 12.3050472,36.2787391 C12.4251978,35.9552301 12.5922751,35.651151 12.8009158,35.3762632 C12.9800656,34.6439069 13.7252647,34.3649697 14.3352273,33.8708996 C14.3898421,33.8163327 14.4458808,33.7631792 14.4990689,33.7071218 C14.6737074,33.5245333 14.8300764,33.3253082 14.9659445,33.1122893 L14.9663988,33.1114285 C15.2741033,32.5148134 15.3077669,31.818177 15.3269672,31.1489981 C15.3651712,29.8172344 15.3393556,28.4824207 15.3670522,27.1502213 C15.3868998,26.7956168 15.3743468,26.4399409 15.3295496,26.087618 Z M7.5029895,33.0126746 L4.58056732,33.0126746 C3.90395751,33.0126746 3.9050946,31.9628502 4.58056732,31.9628502 L7.5029895,31.9628502 C8.1796179,31.9628502 8.17851535,33.0126746 7.5029895,33.0126746 Z M11.6652466,30.3559272 C8.95336637,30.6190063 6.24473,30.8724546 3.51786835,30.8872863 C2.84109648,30.8909562 2.84255769,29.8411159 3.51786835,29.8374523 C6.24479642,29.8226303 8.95330792,29.5691978 11.6652466,29.3061028 C12.3383761,29.2408026 12.331628,30.2912752 11.665236,30.3559272 L11.6652466,30.3559272 Z M11.8933682,28.0346605 C8.86930688,28.6474951 5.78771365,28.5049925 2.72084412,28.496204 C2.04433261,28.4942566 2.0452731,27.4444508 2.72084412,27.4463796 C5.68886405,27.4548812 8.68704338,27.61554 11.6142663,27.0223441 C12.2749409,26.888452 12.5550152,27.9005745 11.8933576,28.0346552 L11.8933682,28.0346605 Z" id="Shape" opacity="0.6"></path>
                            <path d="M23.8520997,3.05701367 C23.8351801,2.99599599 23.8182086,2.93500321 23.8001249,2.8742615 C23.7471334,2.74057151 23.6977399,2.60537437 23.6519445,2.46867009 C23.6269199,2.44346704 23.6055411,2.41641309 23.5790474,2.39197157 C23.4861887,2.30625507 23.3907964,2.22302235 23.2945949,2.14071302 C23.0500614,1.9864175 22.8032496,1.83698581 22.5524351,1.6962152 C22.1502488,1.53009007 21.7499902,1.35623968 21.3499328,1.18073136 C20.0638429,0.759218412 18.7786141,0.336302754 17.4724133,0 C17.11217,0.0141644438 16.7545297,0.0674029877 16.4057804,0.158779604 C16.2704557,0.254299938 16.1403927,0.35706449 16.0161603,0.466623624 C15.9852074,0.548766962 15.9548625,0.629138242 15.9244657,0.702695197 C15.644923,1.37183663 15.4040134,2.05646988 15.2029253,2.75321799 C14.9285532,3.71816514 14.8568139,4.6613164 15.8603811,5.19861479 C16.171734,5.36529603 17.9418734,5.86625481 18.7974095,6.39916456 C18.8447715,6.52870781 18.8754474,6.66375404 18.8886974,6.80104586 C18.9455593,6.84879864 18.9858786,6.91329734 19.0038977,6.98533146 C19.0810976,7.27621495 19.0866944,7.58146903 19.0202094,7.87498694 C19.0183854,7.88615671 19.0141296,7.89689695 19.0120525,7.90802937 C19.2207693,7.81520804 19.4276123,7.71918498 19.6352645,7.62458329 C20.1802073,7.17144929 20.7564577,6.72417719 21.4591031,6.62249143 C21.8560708,6.56504276 22.1883459,6.57782274 22.510437,6.5141947 C22.6132035,6.43532476 22.7073908,6.34586614 22.7914449,6.24729473 C22.8419029,6.18744113 22.8867853,6.12374876 22.9328359,6.06088225 C23.1945913,5.49824524 23.4484118,4.93205859 23.6942974,4.36232229 C23.7608637,4.11112806 23.8169927,3.85524846 23.8653217,3.59793711 C23.8550898,3.41801317 23.8489602,3.23802076 23.8520997,3.05701367 Z M21.0294105,4.87595107 C19.7921985,4.81595601 18.5750866,4.53950184 17.4333554,4.05914496 C16.9513829,3.8454648 17.3690696,3.13915909 17.847141,3.35114189 C18.858956,3.76898688 19.9357874,4.00750197 21.0294105,4.05600547 C21.553684,4.09294891 21.5560143,4.91306051 21.0294105,4.87595107 Z M22.2744152,3.42344554 C20.33487,3.25053306 18.5234442,2.68428831 16.7416515,1.91497498 C16.2580066,1.70614411 16.6760999,0.999977427 17.155489,1.20698229 C18.775885,1.94393721 20.5042666,2.4154684 22.2744152,2.60351032 C22.7967134,2.65006728 22.7999047,3.470293 22.2744152,3.42344554 Z" id="Shape" opacity="0.6"></path>
                            <path d="M20.826097,47.9979516 C17.4644251,49.0128826 13.8182284,48.2938215 11.0935674,46.0786139 C8.77949434,44.2180215 6.27425291,40.8926113 6.37137382,37.8031466 C6.37502836,37.6872498 6.18355441,37.6561143 6.16455379,37.7751564 C5.65525463,40.9488702 8.70285084,44.6395787 11.0378386,46.4539323 C13.7993382,48.5997976 17.5535458,49.5011271 20.8597397,48.1198096 C20.9321415,48.0895398 20.9065448,47.9740474 20.826097,47.9979516 Z" id="Shape"></path>
                            <path d="M19.0891897,44.1426481 C16.2803382,43.926333 13.7128596,42.473012 12.0817401,40.1760817 C12.0508862,40.1322212 11.9781818,40.1733857 12.0088979,40.2185912 C13.5832551,42.6186489 16.2209757,44.1093037 19.0891897,44.2199033 C19.1396523,44.2215412 19.137888,44.1472372 19.0891897,44.1426481 Z" id="Shape"></path>
                            <path d="M25.5910846,10.5125 C25.5469759,10.4965384 25.4976626,10.5061433 25.4627688,10.5374925 C25.427875,10.5688417 25.4130626,10.6168485 25.4242261,10.6624086 C25.4353896,10.7079687 25.4707176,10.7436896 25.5161515,10.7553562 C27.7758168,11.6033115 27.8002393,14.2512957 26.3020544,15.6990688 C24.6660185,17.280071 22.3032203,17.3368392 20.0795882,17.5716075 C17.0825864,17.8880218 14.3110398,19.3865751 13.0374085,21.8958665 C12.9817935,22.0055027 13.1475899,22.0981183 13.2213517,21.991912 C14.548689,19.9837615 16.605807,18.571367 18.9567396,18.0540577 C21.2486487,17.5744203 23.6145803,17.8815155 25.6519207,16.6324595 C28.0034917,15.1907492 28.7229449,11.6128432 25.5910846,10.5125 Z" id="Shape" opacity="0.402553013"></path>
                            <path d="M27.6851482,16.1285612 C26.4932888,18.3876903 24.1013021,19.1539546 21.7412508,19.5711534 C21.6645294,19.5847081 21.6814362,19.7190424 21.7597901,19.7085641 C24.1887445,19.3837982 26.6938362,18.5761867 27.8011649,16.196347 C27.8370723,16.1191822 27.7260731,16.051046 27.6851482,16.1285612 Z" id="Shape" opacity="0.402553013"></path>
                        </g>
                        <g id="Group-138" transform="translate(124.845223, 61.196159)">
                            <polygon id="Path-33" fill="#FF94A8" points="16.6409846 6.86196239 17.2781731 14.9223642 14.814124 17.8414522 12.030028 20.8130619 11.5591208 21.3988462 12.030028 26.6771634 4.11422838 26.6771634 3.72288598 18.2017286 1.89736644 16.7695629 1.23067634 11.7990004 2.70351837 9.21292223 4.6772161 9.21292223 5.58952887 9.21292223 6.51614543 5.23736622 15.6705627 5.23736622"></polygon>
                            <path d="M6.97274881,6.7459677 C7.06691534,11.9421127 7.9544945,14.5401852 9.63548629,14.5401852 C11.3164781,14.5401852 13.8169571,14.3144537 17.1369233,13.8629907 C17.8220146,17.1033922 18.1645603,19.5186445 18.1645603,21.1087478 C16.0851487,22.7775962 13.7455872,22.8781697 11.5316307,22.8781697 C9.31767425,22.8781697 6.2995773,20.579955 6.2995773,18.2917977 C6.2995773,16.7663595 6.2995773,15.0759808 6.2995773,13.2206617 C5.20086843,11.4288157 4.28885365,10.767713 3.56353296,11.2373537 C2.47555193,11.9418147 2.23819863,14.9102954 3.56353296,14.9102954 C4.44708919,14.9102954 4.90346907,16.0374628 4.93267262,18.2917977 C5.84543238,19.0558578 5.84543238,19.4378878 4.93267262,19.4378878 C3.56353296,19.4378878 1.66828251,18.8062867 1.09344948,16.858291 C0.518616439,14.9102954 -0.505891587,8.39850093 0.293778944,6.7459677 C1.09344948,5.09343446 2.19439331,2.96574764 3.56353296,2.96574764 C4.93267262,2.96574764 3.56576793,3.78463887 4.93267262,2.3140318 C6.2995773,0.843424727 7.36943289,0.459904707 8.3843528,0.651664717 C9.06096607,0.779504724 9.47801057,1.08480096 9.63548629,1.56755344 C11.9133628,-0.151283763 13.8348368,-0.456580003 15.3999084,0.651664717 C16.96498,1.75990944 17.543985,2.73599322 17.1369233,3.57991606 C18.7821557,4.14104131 19.6047719,4.8089979 19.6047719,5.58378582 C19.6047719,6.7459677 17.7171203,10.2745307 17.1369233,10.2745307 C16.7501254,10.2745307 16.3995338,9.74871788 16.0851487,8.69709228 L15.3999084,6.7459677 C12.6135822,8.03092366 10.7477413,8.35216265 9.80238593,7.70968467 C8.85703051,7.06720669 7.91381813,6.7459677 6.97274881,6.7459677 Z" id="Path-32" fill="#000000"></path>
                            <path d="M13.1755666,17.3406476 L16.6880378,16.5981922 L16.6880378,17.0335025 C16.6880378,17.7900452 16.1873643,18.4552649 15.4603714,18.664641 C14.7331545,18.8740816 13.9550526,18.5776079 13.551588,17.9373531 L13.1755666,17.3406476 L13.1755666,17.3406476 Z" id="Path-35" fill="#FFFFFF"></path>
                        </g>
                        <path d="M147.378759,199.422016 L72.5031862,180.376822 L0.376456556,180.376822 L97.7375642,199.422016 L102.437745,199.422016 L107.398298,199.422016 L110.267011,199.422016 L70.8477449,186.134793 C80.4612766,188.644544 101.368141,193.073618 133.568339,199.422016 L147.378759,199.422016 Z" id="Path-52-Copy-4" fill="url(#linearGradient-9)" style="mix-blend-mode: multiply;" opacity="0.392271207"></path>
                        <polygon id="Path-65" fill="#FFFFFF" points="127.671113 87.8879011 137.582736 87.8879011 138.457948 94.5498852 134.310747 111.862819 127.671113 93.2576284"></polygon>
                        <polygon id="Path-39" fill="#693CF5" points="127.671113 87.8879011 134.072053 109.623384 137.582736 93.5110734 137.582736 87.8879011 156.867803 89.1922268 154.581463 80.4898239 162.516446 83.3463337 167.229996 92.1656244 165.53768 96.6963458 144.466429 99.8199331 143.124556 137.894799 140.742083 194.298168 135.345983 194.298168 135.345983 134.604037 127.671113 134.604037 110.543234 194.298168 105.443937 194.298168 119.685135 133.164719 121.308614 127.565684 119.685135 103.698045 113.163507 109.623384 119.913996 120.553705 120.613651 121.718122 120.789878 123.277457 120.789878 123.676733 118.274537 126.190957 102.985476 109.623384 102.985476 105.882947 118.982015 89.1922268 121.308614 87.8879011"></polygon>
                        <path d="M120.789878,123.676733 C123.300936,124.225715 124.556465,125.247877 124.556465,126.743217 C124.556465,128.238558 123.928701,129.383456 122.673172,130.177912 L120.789878,130.177912 L120.789878,127.565684 L118.274537,126.190957 L120.789878,123.676733 Z" id="Path-67" fill="#FF94A8"></path>
                        <polygon id="Path-101" fill="#3F2F7C" points="133.064531 87.8733227 130.558688 99.6706374 134.099647 109.38022 136.833576 98.6267714"></polygon>
                        <polygon id="Path-102" fill="#FFFFFF" points="116.851423 124.76505 120.613651 121.718122 121.415501 123.241586 118.274537 126.190957"></polygon>
                        <polygon id="Path-103" fill-opacity="0.85" fill="#000000" points="105.443937 194.298168 97.4459445 197.028086 97.4459445 199.47719 110.380677 199.47719 110.380677 194.298168"></polygon>
                        <polygon id="Path-103-Copy" fill-opacity="0.85" fill="#000000" transform="translate(141.904142, 196.887679) scale(-1, 1) translate(-141.904142, -196.887679) " points="143.434769 194.298168 135.436776 197.028086 135.436776 199.47719 148.371508 199.47719 148.371508 194.298168"></polygon>
                        <path d="M156.142781,67.2587257 L155.589403,68.5290799 C152.882414,70.321224 151.278007,71.217296 150.776182,71.217296 C150.023446,71.217296 148.286655,71.1363903 147.85039,70.0160023 C147.414124,68.8956142 147.244937,66.8497271 149.01056,66.2205844 C150.776182,65.5914417 152.926666,65.0069984 154.534723,65.3916359 C155.606762,65.6480609 156.142781,66.2704242 156.142781,67.2587257 Z" id="Path-104" fill="#FF94A8"></path>
                        <polygon id="Path-105" fill="#693CF5" points="156.142781 66.954547 157.019558 68.4718255 155.154703 68.8415281"></polygon>
                    </g>
                    <g id="Page-1-4" transform="translate(67.644401, 160.442612) scale(-1, 1) translate(-67.644401, -160.442612) translate(47.056974, 117.642436)" fill-rule="nonzero">
                        <g id="Group-122">
                            <path d="M11.6927432,68.4440426 L13.8126762,80.8516115 C13.8126762,82.9739595 16.4625753,84.6912005 19.7590569,84.6972739 C23.0555385,84.7033153 25.7054376,82.9860479 25.7054376,80.8637263 L27.5815469,68.4621884 L11.6927432,68.4440426 Z" id="Shape-2" fill="url(#linearGradient-10)"></path>
                            <ellipse id="Oval" fill="#CFCEEA" cx="19.6371565" cy="70.7627936" rx="9.77772363" ry="3.79242064"></ellipse>
                            <ellipse id="Oval-2" fill="#9C96D5" cx="19.6371565" cy="71.3045679" rx="7.94441332" ry="3.25064626"></ellipse>
                            <path d="M38.5832846,40.3051483 C37.9519368,40.1430337 37.2934594,40.0241528 36.6620202,39.8620382 C36.4839389,39.8620382 36.4083831,39.8620382 36.4029846,39.7917894 C34.9816265,39.560109 33.8410419,38.492738 33.5157124,37.0898498 C32.695395,33.6746245 35.0699945,29.5838571 36.7537715,26.8224656 C38.4375484,24.0610741 43.1165672,17.98712 39.9539725,14.9663956 C37.3041649,12.4373675 33.8070474,15.5446049 31.7508668,17.1279381 C29.8512192,18.5815934 27.5036121,19.2896178 26.4998149,16.5875639 C25.355703,13.4533112 25.8844796,9.6273668 25.6794975,6.35259352 C25.5176117,3.65065394 25.1398324,-0.261757688 22.1931998,0.0138393255 C15.9167569,2.71577891 14.8967643,10.8702755 16.7262545,16.7658968 C17.2918682,18.5156782 17.9993989,20.2163591 18.8417956,21.8509911 C16.8342013,20.9323343 14.9183354,20.8944992 14.2383555,23.5370098 C13.6986676,25.7255676 15.4202339,27.3197206 16.9367266,28.6112385 C19.2463559,30.5612669 21.7386003,32.2840924 24.3788754,33.7558076 L24.7080912,34.2962046 C24.7728501,34.5501162 24.837609,34.8041651 24.8915709,35.0635438 C25.4174433,37.9131522 24.6810601,40.8507397 22.8731796,43.115332 C22.1068699,45.0823462 21.0059001,47.0007283 20.1100497,48.9191104 C18.2729316,52.9807627 17.5180997,57.4486888 17.9189528,61.8884342 C18.3614909,63.6771155 18.8309986,65.4387816 19.0846586,67.1084905 C19.2557524,67.1801035 19.4388777,67.2186117 19.6243236,67.2219729 C19.7912207,61.1659102 22.307181,55.4122199 26.640061,51.1778485 C28.6858351,49.2847625 31.1344751,47.8805251 33.8015803,47.0708857 C35.4253538,46.7237985 37.0042263,46.1925856 38.5075686,45.4875525 C39.771861,44.7410219 40.5660582,43.3992999 40.6123127,41.9317837 C40.1853059,41.1362164 39.4526833,40.548886 38.5832846,40.3051483 L38.5832846,40.3051483 Z" id="Shape-3" fill="url(#linearGradient-11)"></path>
                            <path d="M19.4683853,54.7498584 C17.5386115,53.4218551 16.3235645,54.8419986 15.592322,56.8474884 C15.1983263,54.1760636 15.6805813,51.4488928 16.96683,49.0745913 C18.8086269,47.3075496 20.8153749,45.6163611 20.8593634,42.9766185 C20.8593634,40.7542515 18.8416126,39.1823329 16.8953459,40.7705156 C15.7957486,41.6649249 15.6913017,43.2638817 15.0699274,44.4563969 C15.0369418,44.488925 15.009469,44.5268517 14.9764605,44.5539584 C14.58985,44.9937233 13.9282254,45.0577837 13.4644284,44.7003579 C13.2664918,44.0173815 13.074068,43.3289837 12.8816442,42.6460301 C12.8817963,41.4291606 12.8157197,40.2131845 12.6837075,39.0034968 C12.4363152,36.6835455 11.9249922,31.3877961 8.97808512,30.6560274 C6.03117804,29.9242588 6.39955572,33.3662477 6.7349249,35.0465706 C7.20225948,37.4640834 8.01592031,39.7894561 8.67014297,42.1581768 C9.01662074,43.3839909 9.29016555,44.6292569 9.48933954,45.8874289 C9.52232517,46.1096816 9.62128207,46.5325016 9.68176335,46.9335675 C9.60750675,47.3263654 9.4157926,47.6873798 9.1319647,47.9688863 C8.52118788,48.4469607 7.70925955,48.5817335 6.97678141,48.3266272 C6.7982224,48.190876 6.66890046,48.0005076 6.60849523,47.7844916 C5.50892079,46.5648925 5.4484395,44.8086706 3.76056792,44.0552395 C2.76973123,43.5837095 1.59563664,43.7273436 0.747689574,44.423823 C-1.66591166,46.7166676 3.15028798,50.9283517 4.54677885,52.4677422 C8.78568418,57.1672569 12.9036498,61.9209623 16.7247219,66.9619537 C16.7892923,67.0515231 16.8793778,67.1195337 16.9832085,67.1570997 C17.1041482,67.3197175 17.2306007,67.476891 17.3570533,67.6395088 C17.4256382,67.7349309 17.4776806,67.8412119 17.5110015,67.9539017 C17.5634798,68.0545518 17.6517478,68.1319006 17.7584166,68.1707102 C17.9453504,68.4092269 18.1212814,68.6531422 18.3082152,68.8916361 C18.4894419,69.0609795 18.7603096,69.0913518 18.974541,68.9663509 C19.1887723,68.8413501 19.2956061,68.5905946 19.2373487,68.3495005 C18.7205585,67.034147 18.2019231,65.7169863 17.6814425,64.3980185 C17.5156806,63.2236694 17.7520737,62.0277805 18.3521808,61.0048218 C19.0383158,60.1704061 19.6508779,59.2781208 20.1829978,58.3379724 C20.7511121,57.113877 20.4621324,55.6628919 19.4683853,54.7498584 Z" id="Shape-4" fill="url(#linearGradient-12)"></path>
                            <path d="M33.7526508,51.9928132 C30.8907262,50.6398741 27.4747986,51.4179908 25.4811948,53.8769744 C25.0512865,54.1024034 24.6612995,54.3968759 24.3267892,54.7486461 C23.6235234,55.5764855 23.0489502,56.5055236 22.6224019,57.5045018 C21.8226491,58.7873878 21.1130438,60.1243172 20.4987174,61.5056224 L20.4987174,61.4568988 C20.8966509,59.061315 22.0579086,56.8584053 23.8094729,55.1763842 C24.5889487,54.2913983 25.1238941,53.2182589 25.3613989,52.0631078 C25.6554559,50.0544155 24.272324,48.3164478 22.1922162,49.2531071 C21.594512,49.5316014 21.0564058,49.9232261 20.6076249,50.4063461 C20.6457574,50.076078 20.6785371,49.74581 20.7165324,49.4155419 C21.8767047,46.4604034 22.8176627,43.4238334 23.5317714,40.3304708 C24.0377562,37.5452417 23.234518,34.6820665 21.3536446,32.5664491 C20.6100698,31.61735 19.4484683,31.093054 18.2448225,31.1632629 C17.0411767,31.2334718 15.94841,31.8892656 15.3202248,32.9183797 C13.5777279,35.7608399 14.5850936,40.6390763 14.9880581,43.7468398 C15.2585344,45.8549369 15.6549334,47.9449573 16.1751291,50.0056919 C16.3711672,50.7582767 16.5889821,51.5108615 16.8122413,52.2580021 C16.8210428,53.331738 16.7225345,54.4036666 16.5181843,55.4578143 C16.3657229,55.4145121 16.1969289,55.3603671 16.0226678,55.317042 C12.3688571,54.3316592 9.01452487,52.3661776 5.06667999,52.5179069 C2.74151319,52.6045343 0.165888906,54.2233693 0.78664556,56.8492956 C1.57077488,60.0978313 5.45328898,59.6809359 7.80567694,58.8038201 C14.6776683,56.2591455 16.8557952,63.4438142 17.8414068,68.6848011 C18.1409081,70.2494455 20.4932732,69.8055348 20.564071,68.3220506 L20.564071,67.8780713 C20.9749571,67.7350743 21.2913899,67.402298 21.4135311,66.9847372 C21.6759068,65.9776724 21.9921965,64.9854307 22.3610331,64.0123017 C23.0558377,62.085826 24.3112987,60.4113761 25.9658228,59.2044743 C27.7355637,58.1216214 30.0878831,58.3327798 31.9992426,57.5801949 C34.6021109,56.594835 37.4609038,53.8390707 33.7526508,51.9928132 Z" id="Shape-5" fill="url(#linearGradient-13)"></path>
                            <path d="M33.8535064,39.1329231 C33.0533924,40.6592753 31.5248692,41.6671824 29.8067503,41.8013509 C29.2469476,41.9140513 28.7134316,42.1313504 28.2341912,42.4418486 C28.6116446,41.3502756 28.880282,40.2240673 29.0361858,39.0796474 C29.1583216,38.165205 29.2126072,37.2429769 29.1985978,36.3205205 C29.2986602,36.4097751 29.4497568,36.4097751 29.5498193,36.3205205 C30.6373374,35.6066953 31.3694097,34.4635229 31.562812,33.1771179 C31.5614687,33.0333252 31.4445216,32.9174656 31.3007227,32.9174656 C31.1569237,32.9174656 31.0399767,33.0333252 31.0386333,33.1771179 C30.8345652,34.3094137 30.1678021,35.3054219 29.1987121,35.9255851 C29.1603271,34.7937384 29.0376755,33.6663239 28.8317756,32.5527013 C29.5971017,30.1351198 32.3490916,29.0357283 32.8837699,26.4794105 C32.9571527,26.1431492 32.4434506,25.9990372 32.3595912,26.3352985 C31.8878189,28.576766 29.6600077,29.718842 28.6273424,31.6721313 C28.3579212,30.4774206 28.0076548,29.3023915 27.5789621,28.1551584 C27.3955052,27.6747851 27.1910721,27.1891963 26.970901,26.7035389 C26.9680191,26.6912541 26.9680191,26.678469 26.970901,26.6661842 C27.0386786,26.6920248 27.1139838,26.6896327 27.1799846,26.6595424 C27.2459855,26.6294522 27.297179,26.5741726 27.3221225,26.5060598 C28.0821874,24.4300237 30.4672636,23.9763912 31.9087723,22.5621494 C33.0411713,21.4433662 33.7773913,19.9854959 34.0055559,18.4100772 C34.0579624,18.0738159 33.5494987,17.9244427 33.4813543,18.2659653 C33.1312068,20.4594502 31.7729274,22.3618915 29.8120116,23.4053417 C28.4886792,23.9951545 27.4249052,25.0459532 26.8188972,26.3619478 C26.1374533,24.9156582 25.3091526,23.4320139 24.4705123,21.9216974 C24.4917307,21.8429123 24.4720525,21.7587366 24.4181059,21.6975232 C24.1193137,19.7762589 26.1426917,18.2125752 25.3773656,16.2219312 C25.2568147,15.9016823 24.7430898,16.0404873 24.8531868,16.3660432 C25.4664862,17.9670816 24.1560051,19.3546512 23.8939042,20.913005 C23.1757691,19.6054976 22.4733718,18.276625 21.8757875,16.9370698 C21.9396011,16.8911907 21.9783672,16.8181754 21.9806232,16.7396135 C22.1588417,14.0711856 24.5491563,11.7603385 23.3435108,8.99585893 C23.2072221,8.68100856 22.7511877,8.95317434 22.8874765,9.26807046 C23.9044038,11.59493 21.9753849,13.8417273 21.5350427,16.1419834 C19.8047294,12.7456903 19.7524242,8.73782578 21.3935156,5.29753367 C21.5559275,4.98801315 21.0999846,4.7158245 20.9374812,5.02532214 C19.1928252,8.71785308 19.3036987,13.0191681 21.2362734,16.6169124 C19.8535711,16.4159433 18.7181847,15.4209537 18.3374951,14.0765841 C18.3195967,14.0063616 18.2743187,13.946233 18.211775,13.9096291 C18.1492313,13.8730253 18.0746327,13.862996 18.0046422,13.8817813 C17.858877,13.9233605 17.7736058,14.0743817 17.8132935,14.2206732 C18.2730009,15.8575038 19.6995429,17.0376893 21.3935156,17.1826091 C21.4176449,17.1883048 21.4427689,17.1883048 21.4668983,17.1826091 C22.1378654,18.6555709 22.9189066,20.1018604 23.705209,21.5267848 C22.473349,21.3293285 20.1826546,20.9557583 20.5024003,19.8029996 C20.5421029,19.6567133 20.4568387,19.5056863 20.3110744,19.4641077 C20.241081,19.4453218 20.1664795,19.4553506 20.1039321,19.4919541 C20.0413847,19.5285575 19.9961023,19.5886863 19.9781986,19.6589105 C19.4540199,21.6228595 22.599161,21.8630233 23.9201189,22.1085169 C23.947418,22.1833149 24.0104166,22.239432 24.0878607,22.2579358 C24.8374489,23.6135035 25.5608453,24.9263637 26.1846214,26.2445537 C25.3101074,26.2083172 24.4355256,26.3146654 23.5951807,26.559427 C21.822683,27.0419781 19.95771,26.1946047 19.1552963,24.5421108 C18.9980313,24.2378744 18.5419969,24.5100859 18.699262,24.8143223 C19.2649643,25.9917769 20.3321482,26.8507896 21.6032786,27.1518645 C23.25972,27.5201506 24.8270408,26.447317 26.4520292,26.8369912 C27.0895298,28.2976119 27.6015867,29.8098301 27.9826586,31.3572809 L27.9826586,31.3572809 C26.2888836,31.7747685 24.5123058,31.1118517 23.5060371,29.6868629 C23.3068423,29.4093444 22.8455467,29.6868629 23.0499799,29.9590744 C24.1787344,31.5809822 26.1884161,32.3421684 28.1084249,31.8750089 C28.1608542,32.10982 28.218499,32.3393698 28.26569,32.5741122 L28.26569,32.6008072 C28.4663603,33.6720976 28.5889948,34.7565424 28.6326265,35.8455915 C27.9320189,35.5612121 27.400658,34.9710557 27.1910949,34.2445531 C27.1731965,34.1743305 27.1279186,34.1142019 27.0653748,34.0775981 C27.0028311,34.0409943 26.9282325,34.0309649 26.858242,34.0497503 C26.7124851,34.0913399 26.6272189,34.2423523 26.6668933,34.3886422 C26.9375971,35.3548382 27.6732225,36.1218457 28.6272738,36.4326534 C28.6395461,37.4963352 28.5570997,38.5589979 28.3809109,39.608058 C28.2159284,40.5887886 27.9651014,41.5531282 27.6313227,42.4899546 C26.3624944,41.2650874 26.1262197,39.318411 27.0651914,37.8255758 C27.2486711,37.5320448 26.7926139,37.2651403 26.609157,37.5533642 C25.5186288,39.2967339 25.8272059,41.5699955 27.3430073,42.9595766 C27.3680448,42.9842495 27.3986394,43.0025513 27.4322195,43.0129438 C27.1401748,43.7513089 26.7895991,44.4651582 26.3838391,45.1476769 C25.7914931,46.1509937 24.3656994,47.28241 24.2294107,48.5205607 C24.4209503,48.6174682 24.5975036,48.7415086 24.7536123,48.8888469 C24.5806322,47.9655695 25.8806138,46.8715079 26.3786007,46.135027 C26.8507036,45.4317291 27.2610989,44.6889198 27.6051996,43.9149018 C27.6366526,43.8455222 27.6576289,43.7761426 27.6890819,43.7121157 C27.7313282,43.6891041 27.7673159,43.6561239 27.7939177,43.616041 C28.747939,42.1164072 30.6612429,42.4633053 32.0712986,41.7801687 C33.0450792,41.2872973 33.8163085,40.4700187 34.2519417,39.4693216 C34.4563291,39.0955226 34.0002718,38.8072986 33.8535064,39.1329231 Z" id="Shape-6" fill="#FFFFFF" opacity="0.3"></path>
                            <path d="M18.189929,58.8168588 C18.1785373,59.0270012 18.1785373,59.2376065 18.189929,59.447749 C18.463841,61.9390198 18.9197671,64.4068956 19.5540519,66.8315896 C19.5199454,66.8850483 19.4972077,66.9331771 19.4631012,66.9813059 C19.4106425,67.052927 19.4106425,67.1502832 19.4631012,67.2219043 C19.9956083,66.5749914 20.4320679,65.8546853 20.7590111,65.0832138 L20.8442888,64.8746861 C20.8783724,64.7356752 20.9068059,64.5913116 20.9409124,64.4469251 C21.2626508,63.1471675 21.7862366,61.905908 22.4925868,60.7683867 C22.5581147,60.6384999 22.5064277,60.4800764 22.3769083,60.4138254 C22.2461472,60.3422205 22.0826798,60.3770068 21.9924038,60.495649 C21.4164703,61.431676 20.9546935,62.4333008 20.616935,63.4791331 C20.3611476,64.2918332 20.264524,65.157992 19.980326,65.9600095 C19.7757099,64.8906528 19.5654207,63.8533896 19.3608046,62.8055582 C19.0671353,61.6249001 18.87695,60.4208883 18.7924086,59.2071964 C18.8281823,59.1684799 18.8518878,59.1201705 18.8606216,59.0681855 C18.9446435,58.4332927 19.0776616,57.8058523 19.2584851,57.1914815 C19.3354166,57.1625526 19.3943289,57.0992199 19.4176259,57.0203999 C19.8439229,55.6516335 21.0773156,54.8442632 21.9924038,53.7802822 C22.6891832,52.9815681 23.1428121,52.0001182 23.2997054,50.9518672 C23.3565267,50.6096584 22.8051954,50.4652948 22.7313094,50.8075036 C22.4306515,52.2350458 21.6577541,53.5196408 20.5373531,54.4539714 C20.0366266,54.9207757 19.5990598,55.4510237 19.2357703,56.0312427 C19.3502407,55.5314235 19.4281303,55.0239258 19.46882,54.5127828 C19.5019788,53.2344256 19.4469025,51.9553037 19.3039833,50.684528 C19.1334737,48.0111592 19.7643639,45.4019545 19.8325769,42.7339384 C19.8809891,40.1304113 19.5262887,37.5350677 18.7810627,35.0400055 C18.73394,34.8888077 18.5760617,34.8015783 18.4229787,34.8421603 C18.3496272,34.8575498 18.2857251,34.9021898 18.2460359,34.9657668 C18.2063466,35.0293439 18.1943037,35.106358 18.2126896,35.1790164 C19.042643,37.9594172 19.3755125,40.8644487 19.1959908,43.760519 C18.8652635,46.3953075 18.7303739,49.0509939 18.7924315,51.705733 C18.9460838,53.1125368 18.9059219,54.5337734 18.6730702,55.9296552 C18.536667,56.6675086 18.3547886,57.3839739 18.2524691,58.1164974 C17.4843992,57.429321 16.5495852,56.9555293 15.5412651,56.7423782 C14.7469199,56.6566567 13.9694402,56.4549035 13.2336434,56.1435586 C12.6084033,55.8067025 12.09676,55.2613416 11.4886989,54.8656742 C11.1874591,54.6678519 10.9203029,55.1330133 11.1988279,55.3361883 C12.020297,56.0647524 12.9654151,56.6405695 13.9895679,57.0364581 C15.509141,57.1869776 16.9495508,57.7862897 18.1274119,58.7580931 L18.189929,58.8168588 Z" id="Shape-7" fill="#FFFFFF" opacity="0.3"></path>
                            <path d="M14.804647,47.4299533 C14.8908664,48.5334425 14.4947761,49.620165 13.718706,50.4093656 C13.2000901,50.8136073 12.7111207,51.2545076 12.2555576,51.7286765 C11.8737463,49.3187834 11.7721003,46.8728008 11.952648,44.4395381 C11.8806691,41.0162175 11.2433791,37.6283313 10.0665424,34.4128439 C9.9407303,34.0775204 9.38640241,34.2204429 9.49498965,34.5612563 C10.8150607,38.1852563 11.44697,42.0238494 11.3582432,45.8797658 C11.1703151,48.0188945 11.3188139,50.1742604 11.7983338,52.2674037 C9.56931026,52.0639999 6.88875872,51.6352325 6.16289182,49.2494929 C6.11776051,49.0953645 5.95812155,49.0051854 5.80281773,49.0460891 C5.72832046,49.0630716 5.66384361,49.1094304 5.62402308,49.1746422 C5.58420254,49.2398539 5.57241607,49.3183872 5.59133912,49.3924154 C6.41437867,52.1079884 9.43203787,52.6192199 11.9812187,52.8390937 C12.1689358,53.336315 12.4063769,53.8133125 12.6899295,54.2628286 C12.8842519,54.5651892 13.3815069,54.2628286 13.1871844,53.9824964 C12.8705497,53.4808743 12.6135204,52.9440232 12.4213093,52.3828305 C12.4851208,52.3610845 12.5382753,52.3158868 12.5699963,52.2564009 C13.0329617,51.3823502 14.1188798,50.9480928 14.6732764,50.0905579 C15.1796125,49.2998383 15.4162264,48.366392 15.3476976,47.4299533 C15.3589292,47.072647 14.7817721,47.072647 14.804647,47.4299533 Z" id="Shape-8" fill="#FFFFFF" opacity="0.3"></path>
                        </g>
                    </g>
                </g>
            </g>
        </g>
    </g>
</svg>